<?xml version="1.0" encoding="utf-8"?>
<!-- Generator: Adobe Illustrator 24.2.3, SVG Export Plug-In . SVG Version: 6.00 Build 0)  -->
<svg version="1.1" id="Capa_1" xmlns="http://www.w3.org/2000/svg" xmlns:xlink="http://www.w3.org/1999/xlink" x="0px" y="0px"
	 viewBox="0 0 1024 1024" enable-background="new 0 0 1024 1024" xml:space="preserve">
<g>
	<path fill="#B3DFF2" d="M1002.7,611.8c0,0-20.1,249.6-195.1,324.2c-175,74.6-504.9,94.7-685.6-74.6
		c-180.7-169.2-140.6-473.3,0-642.6C262.5,49.6,552.3,20.9,684.3,72.5C816.2,124.2,1014.2,230.3,1002.7,611.8z"/>
	<path opacity="0.3" fill="#02988D" d="M329.2,520c-155.7-27.8-259,14.7-326.9,75.5C9,694.7,45.8,790,122,861.4
		c180.7,169.3,510.6,149.2,685.6,74.6c175-74.6,195.1-324.2,195.1-324.2c1-34,0.4-65.7-1.8-95.5C861.1,672.4,667,580.2,329.2,520z"
		/>
	<g>
		<path fill="#FFFFFF" d="M89.8,552.3c0,0-41.7-31.3-19.7-97c22-65.7,132.4-29.1,107.1,36.4c-25.3,65.4-49.8,68.3-49.8,68.3
			C45.5,797.1,45.8,796.3,37.2,819.2C29.9,838.5-5,836.8,8.7,799.4C22.4,762.1,89.8,552.3,89.8,552.3z"/>
	</g>
	<g>
		<path fill="#C73D29" d="M149.1,347.4c0,0-103.7-28-126.4-127.8C-2.7,108.2,154.9,69.4,190.1,170.1
			C224.4,268.5,149.1,347.4,149.1,347.4z"/>
		<path fill="#A02E2A" d="M190.1,170.1c-12.4-35.6-40.1-53.7-69.7-57.4c22.6,7.7,37.1,29.6,47.1,58c31.4,90-9.4,148.5-18.3,176.7
			l0,0C149.1,347.4,224.4,268.5,190.1,170.1z"/>
		<path fill="#A02E2A" d="M180,196.3c8.1,32.8-11.9,65.9-44.7,74c-32.8,8.1-65.9-12-74-44.7c-8.1-32.8,11.9-65.9,44.7-74
			C138.8,143.5,171.9,163.5,180,196.3z"/>
		<path fill="#FFFFFF" d="M164.2,190.9c7.4,30.1-11,60.5-41.1,67.9c-30.1,7.4-60.5-11-67.9-41.1c-7.4-30.1,11-60.5,41.1-67.9
			C126.4,142.4,156.8,160.8,164.2,190.9z"/>
	</g>
	<g>
		<defs>
			<path id="SVGID_3_" d="M1002.7,611.8c0,0-20.1,249.6-195.1,324.2c-175,74.6-504.9,94.7-685.6-74.6
				c-180.7-169.2-140.6-473.3,0-642.6C262.5,49.6,552.3,20.9,684.3,72.5C816.2,124.2,1014.2,230.3,1002.7,611.8z"/>
		</defs>
		<clipPath id="SVGID_1_">
			<use xlink:href="#SVGID_3_"  overflow="visible"/>
		</clipPath>
		<g clip-path="url(#SVGID_1_)">
			<g>
				<path fill="#FEDA93" d="M123.1,1046c0,0,130.8-314.5,126.8-408.4c-4-94-51.9-274.7-1.1-318.2c50.8-43.5,59,57.1,164.1,67.6
					c105.1,10.6,149.3-26.4,214.9-82.9c65.6-56.5,149.7-131.9,180.9-114.6c31.3,17.3-58.4,120.1-89.3,155.1
					c-30.9,35-101.8,88.9-176.3,265.6c-74.5,176.7-171.6,518.2-171.6,518.2S209.4,1153,123.1,1046z"/>
				<path fill="#FABF84" d="M728.9,333.7c0.1-0.6,0.1-1,0.1-1s-20.6,4.3-28.1-2.9c-18.2-17.4-6-79.3-6-79.3l-75.1,78.5
					c0,0,12.2,47.4,16.9,54.6c3.2,4.9,18.3,13.3,29.2,18.2c22.7-26.5,41.3-43.5,53.6-57.4C722.1,341.4,725.4,337.8,728.9,333.7z"/>
				<path fill="#FABF84" d="M425.1,496L316.9,704.1c0,0,70.4,90.8,148,121c23.9-72.2,49.5-144.8,73.1-202.5c0.2-0.5,0.4-1,0.6-1.5
					l-41.4-88.6L425.1,496z"/>
				<path fill="#16243D" d="M697.2,164.8c-0.8-14.8-14.2-19-14.2-19l-7.6,12.6C598.8,145,347.6,129.6,338.6,143
					c-9.1,13.5-31.6,410.2-20.2,529.8L307,684.1c0,0,3.2,18,14.6,22.9c26.8,19.3,291.6,43.9,314.8,17.2
					C659.8,697.5,705.1,178.7,697.2,164.8z"/>
				<path fill="#0B4068" d="M324.4,124c-14,12.5-44.1,540.8-17.3,560.1c26.8,19.3,292,47.8,315.2,21.1
					c23.3-26.7,68.6-545.5,60.7-559.4C675,131.9,345.6,105.1,324.4,124z"/>
				<path fill="#C6DCE0" d="M356.3,174c-7.9,17.1-46.4,417.1-24.5,431.2c21.9,14.2,275.9,31.2,284.7,19.1
					c16.1-22.1,46.7-415.6,32.2-432.5C637.3,178.6,364.3,156.8,356.3,174z"/>
				<path opacity="0.3" fill="#02988D" d="M593.2,579.8c-0.6,10.8-8.2,19.2-16.8,18.7l-193.9-11.6c-8.6-0.5-15.1-9.7-14.5-20.5l0,0
					c0.7-10.8,8.2-19.2,16.8-18.7l193.9,11.6C587.3,559.8,593.8,568.9,593.2,579.8L593.2,579.8z"/>
				<path fill="#FFFFFF" d="M631.3,378.7c0,76.1-61.7,137.9-137.9,137.9s-137.9-61.7-137.9-137.9c0-76.1,61.7-137.9,137.9-137.9
					S631.3,302.6,631.3,378.7z"/>
				<g>
					<path fill="#A02E2A" d="M357.5,397.1c0,0,4.3,43.8,31.4,47.5c27.1,3.7,229.6-2.1,238-21.3l-264.9-25.9"/>
					<path fill="#EE7229" d="M504.1,301.4c0,0,124.5,109,122.7,121.8c-1.7,12.8-230.7-8-230.7-8s1-42,9.6-62.6
						C414.4,332,504.1,301.4,504.1,301.4z"/>
					<path fill="#FAB43A" d="M439.5,335.9c0,0,45.7,12.5,46.3,15c0.6,2.5-2.6,8.4-4.3,10.1c-1.7,1.7-48.7-11.9-48.7-11.9"/>
					<path fill="#A02E2A" d="M415.8,399.4c11.3,1.5,21.7-6.4,23.2-17.6c1.5-11.3-6.4-21.7-17.6-23.2c-8.2-1.1-15.9,2.8-20.1,9.4
						c-1.1,5.2-2,10.6-2.6,15.9C400.6,391.8,407.2,398.2,415.8,399.4z"/>
					<path fill="#C73D29" d="M411,296.5c0,0-53.7,45.4-53.5,100.6c0,0,5.2,27.7,38.7,18.1c0,0,59.7-89.5,108-113.8
						c0,0-18.1-46.1-49.4-33.7C423.5,280.2,411,296.5,411,296.5z"/>
					<path fill="#A02E2A" d="M531.5,370.2c13.2,1.8,25.8-3.9,33.4-13.8c-21.1-19.7-42.1-38.4-53-48.1c-5.8,5.5-9.9,12.9-11.1,21.4
						C498.1,349.4,511.9,367.5,531.5,370.2z"/>
					<path fill="#FAB43A" d="M504.4,416.8c2.2-16.3-9.2-31.2-25.4-33.4c-16.3-2.2-31.2,9.2-33.4,25.4c-0.5,3.7-0.2,7.2,0.6,10.7
						c16.9,1.3,36.5,2.8,56.5,4.1C503.4,421.4,504.1,419.1,504.4,416.8z"/>
					<path fill="#EE7229" d="M469.3,408.1c-7.1-1-13.6,4-14.6,11.1c0,0.3,0,0.6,0,0.9c8.1,0.6,16.8,1.3,25.7,1.9
						C481,415.2,476.1,409.1,469.3,408.1z"/>
					<path fill="#EE7229" d="M496.5,400.2c-0.5,3.4-3.6,5.8-7,5.3c-3.4-0.5-5.8-3.6-5.3-7c0.5-3.4,3.6-5.8,7-5.3
						C494.6,393.7,497,396.8,496.5,400.2z"/>
					<path fill="#FAB43A" d="M588.8,379.1c-5.5,5-9.3,11.8-10.4,19.7c-1.5,11.1,2.8,21.6,10.5,28.6c22.3,0.2,37.5-0.9,37.9-4.1
						C627.5,418.5,610.4,400.1,588.8,379.1z"/>
					<path fill="#A02E2A" d="M539.8,391.1c-1.1-2.6-12.4-1.2-12.9,2.6c-0.4,2.8,7.1,22.1,11,31.9c4.6,0.2,9.1,0.5,13.5,0.7
						C547.1,413.2,540.5,392.8,539.8,391.1z"/>
					<path opacity="0.3" fill="#C73D29" d="M454.7,267.7c-31.2,12.5-43.7,28.7-43.7,28.7s-53.7,45.4-53.5,100.6
						c0,0,2.1,10.9,11.8,16.6c0,0,0.1,0,0.1,0c10.5-6.6,11-17,12.6-28.3c1.4-10.6,2.6-19.1,12.9-24.1c8.5-4.2,19-2.6,25.8-10
						c11.2-12.1,1.1-39.5,23-43.1c8.8-1.5,18.4,0.9,26.1-6.3c8.5-8,3.7-19.7,17-24.1c0.7-0.2,1.3-0.4,1.9-0.5
						C480.4,268.5,468.9,262.1,454.7,267.7z"/>
					<path fill="#EE7229" d="M539.9,333.4c-6.8-6.2-13.1-11.8-18.4-16.6c-1.8,1.8-3.1,4.2-3.5,7c-0.9,6.8,3.8,13.1,10.7,14
						C533.1,338.4,537.3,336.6,539.9,333.4z"/>
					<path fill="#EE7229" d="M547.3,357.3c-0.5,3.9-4.2,6.7-8.1,6.2c-3.9-0.5-6.7-4.2-6.2-8.1c0.5-3.9,4.2-6.7,8.1-6.2
						C545.1,349.8,547.8,353.4,547.3,357.3z"/>
					<path fill="#EE7229" d="M607.1,408.5c3,0.4,5.9-0.5,8.1-2.3c-4-4.5-9-9.7-14.4-15.2c-1.4,1.5-2.4,3.5-2.7,5.7
						C597.3,402.4,601.3,407.7,607.1,408.5z"/>
					<path fill="#EE7229" d="M603.6,419.6c-0.5,3.7-3.9,6.2-7.6,5.7c-3.7-0.5-6.2-3.9-5.7-7.5c0.5-3.7,3.9-6.2,7.5-5.7
						C601.6,412.6,604.1,416,603.6,419.6z"/>
					<path fill="#A02E2A" d="M396.2,415.2c0,0-10.2-24.7-28-20.8c-23.2,5.1-10.6,49.8,13.6,49.2c24.3-0.6,15-25,15-25"/>
					<path fill="#EE7229" d="M385.2,415.7c0,0-7.3-15.5-17.5-9.2c-10.3,6.3,4.6,28.8,13.5,26.6C389.9,430.9,385.2,415.7,385.2,415.7
						z"/>
				</g>
				<path fill="#16243D" d="M454.3,137c0,0,94.4,4.7,104.4,7c10,2.3,3.1,13.3-6.1,12c-15.6-2.1-94.8-5.2-99.4-5.8
					C448.6,149.6,441.2,137.1,454.3,137z"/>
				<path fill="#076C92" d="M499.8,667.8c-2.1,15.2-16.1,25.8-31.3,23.8c-15.2-2.1-25.8-16.1-23.8-31.2
					c2.1-15.2,16.1-25.8,31.3-23.8C491.3,638.6,501.9,652.6,499.8,667.8z"/>
				<path fill="#FEDA93" d="M233.5,345.7c0,0,29.7-115.5,66.5-138.6c36.8-23,61.5,49.5,43.5,105.9c-18,56.4-46,125.5-46,125.5"/>
				<path fill="#FEDA93" d="M729,332.7c0,0,27.8,43,11.9,77.3c-13.5,29.2-63.4,95.1-90.6,99.8c-27.3,4.7-27.8-43-5.8-80.7
					C666.3,391.5,729,332.7,729,332.7z"/>
				<path fill="#FEDA93" d="M729,332.7c0,0,27.8,43,11.9,77.3c-13.5,29.2-63.4,95.1-90.6,99.8c-27.3,4.7-27.8-43-5.8-80.7
					C666.3,391.5,729,332.7,729,332.7z"/>
				<path fill="#FEDA93" d="M735.8,416.3c0,0,27.8,43,11.9,77.3c-13.5,29.2-63.4,95.1-90.6,99.8c-27.3,4.7-27.8-43-5.8-80.7
					C673.2,475.1,735.8,416.3,735.8,416.3z"/>
				<path fill="#FEDA93" d="M737.3,497.8c0,0,27.8,43,11.9,77.3c-13.5,29.2-58.4,92.5-85.6,97.2c-27.3,4.7-32.8-40.4-10.9-78.1
					C674.7,556.6,737.3,497.8,737.3,497.8z"/>
				<g>
					<path fill="#FABF84" d="M723.5,431C723.2,431.6,723,432.1,723.5,431L723.5,431z"/>
					<path fill="#FABF84" d="M741.5,505.3c2.5-4.3,4.6-8.2,6.2-11.7c14.1-30.4-6.2-67.7-10.9-75.7c1.6-2.9,3-5.5,4.1-7.9
						c15.9-34.3-11.9-77.3-11.9-77.3c10.8,40.7,6.6,72.4-5.4,98.3c4.8,8.1,29.2,32.9,3,88.2c0,0,2.5-4.3,0,0
						c13.9,7.5,17.5,51.1,9.8,78.4c2.7-4.1,5.1-8.1,7.3-11.8c0.1-0.2,0.2-0.4,0.4-0.6c1-1.7,1.9-3.3,2.7-4.9
						c0.1-0.2,0.2-0.5,0.4-0.7c0.8-1.6,1.6-3.1,2.2-4.5C761.1,549.5,748.6,519.1,741.5,505.3z"/>
				</g>
				<path fill="#FABF84" d="M727.9,419.5l-44.7,53.7c0,0,43-34.3,48.2-31.7c5.3,2.6,5.7-7.6,5.7-7.6L727.9,419.5z"/>
				<path fill="#FABF84" d="M733.7,500.6c0,0-16.8,34.2-35.3,53.1c0,0,30.2-29.5,35.7-22.2l7.4-13"/>
				<path fill="#FFFFFF" d="M650.2,448.1c0,0-11.4,29.3-8.8,37.1c2.7,7.8,7.5,20.6,16.8,13.5c9.4-7.1,23.5-22,25-25.6
					C684.7,469.6,663.3,427.5,650.2,448.1z"/>
				<path fill="#FFFFFF" d="M657.8,534.8c0,0-10.9,27.9-8.4,35.4c2.5,7.5,7.1,19.6,16,12.9c8.9-6.8,22.4-21,23.8-24.4
					C690.6,555.3,670.3,515.1,657.8,534.8z"/>
				<path fill="#FFFFFF" d="M664.4,617.6c0,0-9.9,25.3-7.6,32.1c2.3,6.8,6.5,17.8,14.6,11.7c8.1-6.2,20.3-19,21.6-22.1
					C694.1,636.2,675.7,599.7,664.4,617.6z"/>
				<path fill="#FFFFFF" d="M311.3,219.9c-7-5.1-13.8-6.3-19.6-5.9c-13.7,13.8-26.1,38.9-35.8,63.6c18.7,13.2,44,13.2,49.8,4.6
					C312.7,271.9,330.5,233.7,311.3,219.9z"/>
				<path opacity="0.3" fill="#02988D" d="M350.8,206.4c63.6,0.7,219.3,6.4,301.6,23c-0.2-21-1.3-34.7-3.8-37.6
					c-11.3-13.2-284.4-34.9-292.3-17.8C355.1,176.6,353.2,188.4,350.8,206.4z"/>
				<g>
					<path fill="#FABF84" d="M259.2,375.1c-7-8.7-21.3-10.9-29.3-19.6c-1.1,4.8-1.9,9.8-2.6,15.1
						C237.8,371.2,251.8,375.9,259.2,375.1z"/>
					<path fill="#FABF84" d="M260.2,390.9c-7.6-8-22.7-6.1-33.8-9.8c-0.3,4.4-0.6,8.9-0.7,13.5C236.4,396.2,253,400.2,260.2,390.9z"
						/>
				</g>
				<path fill="#FABF84" d="M729.5,421.8c0,0,3-37.8-1.7-39.1c-4.7-1.3-3.3,47.2-3.3,47.2L729.5,421.8z"/>
				<path fill="#FABF84" d="M718.4,433.6c0,0,3-37.8-1.7-39.1c-4.7-1.3-3.3,47.2-3.3,47.2L718.4,433.6z"/>
				<path fill="#FABF84" d="M733.6,512.4c0,0,3-37.8-1.7-39.1c-4.7-1.3-3.3,47.2-3.3,47.2L733.6,512.4z"/>
				<path opacity="0.5" fill="#C6DCE0" d="M356.3,174c-3.2,6.9-11.3,75.6-18.5,156.3L453,168.8C401.6,166.6,359.4,167.4,356.3,174z"
					/>
				<path opacity="0.3" fill="#8DC4CF" d="M616.4,624.3c9.4-12.8,23.6-151.3,31.1-268.2L492.7,625.5
					C555,629.3,612.4,629.9,616.4,624.3z"/>
			</g>
			<g>
				<path fill="#FEDA93" d="M942,852.5c-29.1-51.6-82.1-131.8-102.8-132.1c-20.7-0.2-34.6,12.7-34.6,12.7s-19.3-18.1-40-18.3
					c-20.7-0.2-31.6,17.1-31.6,17.1c-40.9-17.8-56.5,15.2-56.5,15.2S621.8,695.8,587,662c-35.5-34.5-66.2-56.2-80.4-40.9
					c-12,12.9-14.5,24.3,18.4,62.5c30.4,35.4,88.9,97.4,120.4,132.3c25.7,26.4,31.6,73.1,13.3,62.6c-18.3-10.4-65.7-32-85.6-28.4
					c-27.6,5-20.2,40.8,0.3,45.7c20.5,4.9,42.2,36.8,72.4,61.6c30.2,24.8,99.7,21.2,135.9,30.7c24.7,6.5,51,26.7,65.3,38.9
					c34.5,38.2,81.4,89.7,81.4,89.7s80.4-12.9,134-91.7C1062.4,1025.2,971.1,904.1,942,852.5z"/>
				<g>
					<g>
						<path fill="#FABF84" d="M821.5,744.7c1.4-0.9-2.4-9.6-6.7-18.4c-6.5,3.3-10.4,6.8-10.4,6.8S818.9,746.4,821.5,744.7z"/>
						<path fill="#FABF84" d="M749.1,742.7c1.4-1.2-4.8-9.8-10.6-17.2c-3.6,3.4-5.5,6.4-5.5,6.4S746.6,744.9,749.1,742.7z"/>
						<path fill="#FABF84" d="M697.8,762c1.7-0.8-9.4-14.8-15.8-22.7c-3.8,4.2-5.5,7.9-5.5,7.9S695.4,763,697.8,762z"/>
					</g>
					<path fill="#FFFFFF" d="M505.2,638.3c0,0,6.3,14.5,15.8,20.7c4.8,3.1,25.8-16.6,24.6-21.2c-1.2-4.7-17.9-15.5-23.1-15.8
						C517.2,621.6,505.6,631.2,505.2,638.3z"/>
					<path fill="#FABF84" d="M583.2,723.5c0,0,2.4-18.2,25.5-26.5C608.7,697,590.5,714.3,583.2,723.5z"/>
					<path fill="#FABF84" d="M599.2,737.8c0,0,1.8-18.3,24.6-27.3C623.8,710.5,606.1,728.5,599.2,737.8z"/>
					<path fill="#FABF84" d="M612.3,701.3c0,0-2.4,18.2-25.5,26.5C586.8,727.8,605.1,710.5,612.3,701.3z"/>
					<path fill="#FABF84" d="M1062.4,1025.2c0,0-86-114.2-117.7-168c11,19.5,52,96.8,40.1,147.7c-6.2,26.8-49,68.9-74.7,92
						c11,12.1,18.3,20.1,18.3,20.1S1008.7,1103.9,1062.4,1025.2z"/>
				</g>
				<path fill="#FABF84" d="M655.8,815.9c0,0-114-123.6-136.4-148.8c-11.9-13.4-17.9-23.4-20.8-30.7c-0.8,9.8,6,23.3,26.5,47.2
					c28.7,33.4,82.6,90.8,115,126.4v0c1.8,2,3.7,4,5.4,5.9c13.9,14.3,21.9,34.4,23.6,48.3C676.2,845.5,655.8,815.9,655.8,815.9z"/>
				<path fill="#FFFFFF" d="M593.3,907.5c2.5-9.7,2.2-32-1.8-37.2c-6.1-7.9-22.9-13.3-27-4.7c-3,6.4,0.2,20.4,2,27.3
					c1,0.7,2.1,1.3,3.2,1.8c1.1,0.5,2.3,0.9,3.5,1.2C579.8,897.4,586.4,901.6,593.3,907.5z"/>
				<g>
					<path fill="#FABF84" d="M641,953.3c1.6,1.4,3.2,2.8,4.9,4.1c0.9,0.7,1.9,1.3,2.8,2c-0.4-2.1-0.7-4.3-0.9-6.8
						c-0.5-6.6,0.4-16.2-2.3-18.5C641.8,934.5,641.1,944.7,641,953.3z"/>
					<path fill="#FABF84" d="M631,930.1c-2.9-0.7-0.3,8.4,0.7,14.8c1.9,1.8,3.9,3.7,6,5.5C636.3,941,635.6,931.5,631,930.1z"/>
					<path fill="#FABF84" d="M618.7,932.1c2.8,2.9,5.7,5.8,8.7,8.7c-1.3-5.9-3.1-12.6-6.5-15.5C619.1,925.4,618.6,928.2,618.7,932.1
						z"/>
				</g>
			</g>
		</g>
	</g>
	<g>
		<g>
			<path fill="#FFFFFF" d="M905,465c-8.4,4.4-10.2-13.9-21.9-45.7c-3.1-8.4-5.2-13.1-9.7-22.6c-4.3-10.2-19.2-6.3-15.7,1.5
				c10.2,24.6,26.7,62.8,27.8,67.5c1.7,7.6-7.3,12.9-12.3,2.5c-2.6-5.5-17.5-40.6-27.6-60.8c-4.7-7.7-17.8-2.5-14.6,6.6
				c14.8,30.1,21.5,47,27.9,61.2c6.6,14.6-2.3,17.1-9.4,9c-3.6-4.1-24-61.5-28.5-60.3c-8.7,0.6-2.3,30,5.4,48.7
				c27.8,67.5,48.4,60.5,48.4,60.5C982.2,759.7,981.8,759,992.9,780.8c9.3,18.4,43.9,12.9,26.1-22.8
				c-17.7-35.6-98.5-243.3-98.5-243.3s24.2-28.1-9.5-100.4c-11.9-25.4-22.2-20.6-20.5-15.2C893.7,414.8,912.8,460.9,905,465z"/>
		</g>
	</g>
	<g>
		<path fill="#FAB43A" d="M921.3,64.9c8.3,0.3,17.8,34.3,17.8,34.3s31.7,9.2,33.5,14.2c1.7,5-28.1,23.8-28.1,23.8s3.1,36.6-2.2,39.9
			c-5.3,3.3-33.1-19.3-33.1-19.3s-33.9,13.5-36.9,10.2c-3-3.4,8.1-39.2,8.1-39.2s-27.6-26.1-21.1-30.2c6.5-4.2,36-5.2,36-5.2
			S912.9,64.7,921.3,64.9z"/>
		<path fill="#EE7229" d="M972.6,113.4c-1.7-4.7-30-13.2-33.2-14.1c-4.1,5.9-9,11.1-14.8,15.5c-12.7,9.8-28.5,14.9-44.5,14.6
			c-1.3,4.3-10.7,35.5-7.9,38.6c3,3.3,36.9-10.2,36.9-10.2s27.8,22.6,33.1,19.3c5.3-3.3,2.2-39.9,2.2-39.9S974.3,118.4,972.6,113.4z
			"/>
	</g>
	<g>
		<path fill="#FAB43A" d="M891.2,198.7c7.7-0.8,20.8,29.4,20.8,29.4s30.4,4.4,32.7,8.8c2.2,4.4-22.8,25.6-22.8,25.6
			s7.6,33.4,3.1,37.1c-4.5,3.7-33-13.6-33-13.6s-29.5,16.8-32.7,14.1c-3.2-2.7,2.4-37.1,2.4-37.1s-28.8-20.5-23.3-25.2
			c5.5-4.7,32.5-9.4,32.5-9.4S883.4,199.5,891.2,198.7z"/>
		<path fill="#EE7229" d="M944.7,236.8c-2.1-4.1-29.3-8.3-32.4-8.8c-3,5.9-6.9,11.4-11.6,16.2c-10.5,10.6-24.4,17.4-39.1,19.2
			c-0.7,4.1-5.4,34.1-2.4,36.6c3.2,2.7,32.7-14.1,32.7-14.1s28.5,17.3,33,13.6c4.5-3.7-3.1-37.1-3.1-37.1S946.9,241.2,944.7,236.8z"
			/>
	</g>
	<g>
		<path fill="#FAB43A" d="M755.2,28.5c8.9-3.6,34.7,28,34.7,28s37.8-5,41.9-0.5c4.2,4.5-18.6,38.2-18.6,38.2s20.3,37.2,16.2,43.2
			c-4.1,6-43.9-5.1-43.9-5.1s-29.5,30-34.3,27.9c-4.7-2.1-9.6-45.1-9.6-45.1s-41.2-14.8-36.2-22.2c5-7.4,35.6-22.1,35.6-22.1
			S746.2,32.1,755.2,28.5z"/>
		<path fill="#EE7229" d="M831.8,56.1c-3.9-4.2-37.8-0.1-41.5,0.4c-1.6,8.1-4.4,16-8.4,23.3c-8.9,16.2-23.2,28.9-40.2,36
			c0.6,5.2,5.1,42.5,9.5,44.5c4.8,2.1,34.3-27.9,34.3-27.9s39.8,11.1,43.9,5.1c4.1-6-16.2-43.2-16.2-43.2S836,60.5,831.8,56.1z"/>
	</g>
</g>
</svg>
