<?xml version="1.0" encoding="utf-8"?>
<!-- Generator: Adobe Illustrator 24.2.3, SVG Export Plug-In . SVG Version: 6.00 Build 0)  -->
<svg version="1.1" id="Capa_1" xmlns="http://www.w3.org/2000/svg" xmlns:xlink="http://www.w3.org/1999/xlink" x="0px" y="0px"
	 viewBox="0 0 1024 1024" enable-background="new 0 0 1024 1024" xml:space="preserve">
<g>
	<path fill="#B3DFF2" d="M1009.2,597.3c0,0-20.2,251-196.2,326c-176,75-507.7,95.2-689.4-75c-181.7-170.2-141.3-475.9,0-646.1
		C264.9,31.9,556.3,3.1,689,55C821.7,106.9,1020.7,213.6,1009.2,597.3z"/>
	<path opacity="0.3" fill="#02988D" d="M332,505c-156.5-27.9-260.4,14.8-328.8,76C10,680.6,47,776.5,123.6,848.2
		c181.7,170.2,513.5,150,689.4,75c176-75,196.2-326,196.2-326c1-34.2,0.4-66.1-1.8-96C866.8,658.2,671.7,565.5,332,505z"/>
	<g>
		<g>
			<path fill="#FFFFFF" d="M888.4,503.4c0,215.6-174.7,390.3-390.3,390.3c-215.6,0-390.3-174.7-390.3-390.3
				c0-215.6,174.7-390.3,390.3-390.3C713.7,113.1,888.4,287.8,888.4,503.4z"/>
			<path fill="#A02E2A" d="M856.4,503.4c0,197.9-160.4,358.3-358.3,358.3c-197.9,0-358.3-160.4-358.3-358.3
				c0-197.9,160.4-358.3,358.3-358.3C696,145.1,856.4,305.5,856.4,503.4z"/>
			<path fill="#E84920" d="M829.6,503.4c0,183.1-148.4,331.5-331.5,331.5c-183.1,0-331.5-148.4-331.5-331.5
				c0-183.1,148.4-331.5,331.5-331.5C681.2,171.9,829.6,320.3,829.6,503.4z"/>
			
				<ellipse transform="matrix(8.512596e-02 -0.9964 0.9964 8.512596e-02 -45.8275 956.8339)" fill="#EE7229" cx="498.1" cy="503.4" rx="289.9" ry="289.9"/>
			<path opacity="0.2" fill="#F7A825" d="M608.1,771.6c85.9-35.2,151-110.5,172.4-202.5c-10.7-6.1-23.1-10.5-37.4-14
				c-17.2-4.2-51.3-0.9-63.5-16.5c-12.6-16.1,0-46.5,9.1-61.4c12.2-20.1,30.6-31.1,51.6-40.1c14.1-6,25.9-11.6,34.1-21.8
				c-8.1-25.3-19.6-49.2-33.9-70.9c-8.2,0.5-16.6,1.9-24.4,2.8c-26.3,3-52.7,3.6-78.8,7.9c-10.5,1.7-39.9,9.2-48.5-1.8
				c-5.6-7.2-1.9-33.5-1-42.1c2.5-24.4,14.8-42.5,25.5-63.6c1.4-2.7,2.7-5.6,3.9-8.6C593.9,228.6,569,221,543,217
				c-27.4,10.7-51.2,28.7-72.2,49.2c-43.5,42.5-56.9,99.5-112.3,131.4c-55.7,32.1-83.8-12-97.4-61c-15.4,21.8-27.8,45.8-36.8,71.5
				c22.8,1.5,46.2,4.4,58.7,21.2c24.7,33.3-52.3,55.5-72.5,63.6c-0.7,0.3-1.4,0.6-2.1,0.9c-0.1,3.2-0.2,6.4-0.2,9.6
				c0,23.1,2.8,45.5,7.9,67.1c28.7,6.3,53.1-0.6,79.2-11.5c18.6-7.7,40-18.7,60.6-11.4c15.3,5.4,41.4,22.7,33.4,40.9
				c-5.9,13.5-31.1,26.4-42.5,34.5c-16.3,11.5-34.3,20.8-49.9,33.2c-9.1,7.3-18.2,16.5-26.2,26.9c31.8,40.2,74,71.8,122.6,90.6
				c18.6-19.2,36-39.7,53.1-53.9c35.7-29.5,68-65,109.3-86.3c19.4-10,43.6-26.2,60.6-2.6c13.9,19.2,9.8,55.6,6,77.6
				C618.4,730.2,609.8,750.6,608.1,771.6z"/>
			<path fill="#FAB43A" d="M498.1,213.5c-160.1,0-289.9,129.8-289.9,289.9c0,160.1,129.8,289.9,289.9,289.9
				c160.1,0,289.9-129.8,289.9-289.9C788,343.3,658.2,213.5,498.1,213.5z M635.3,732.3c-52.7,37.9-228.6,33.4-264.2-12.1
				c-58.5-74.6-59.9-78-102.9-123c-42.4-44.4-44.6-145.5-4-213.8c44.4-74.6,88.7-54.5,121-98.8c32.3-44.4,115-46.4,115-46.4
				c54.5,0,125.1,12.1,151.3,46.4c26.2,34.3,22.2,78.7,84.7,129.1c42.9,34.6,40.3,127.1,8.1,167.4
				C711.9,621.4,699.8,685.9,635.3,732.3z"/>
			<path fill="#E84920" d="M707.8,303.3c-5.6-5.8-11.4-11.5-17.4-16.8L510.2,466.6V213.8c-4-0.2-8-0.3-12.1-0.3
				c-4.1,0-8.1,0.1-12.1,0.3v252.8L305.9,286.5c-6,5.4-11.8,11-17.4,16.8l180.4,180.4H209c-0.4,6.5-0.7,13-0.7,19.7
				c0,1.5,0.1,3,0.1,4.5h260.5L281.2,695.6c5.4,6,11,11.8,16.8,17.4l188-188v267.9c4,0.2,8,0.3,12.1,0.3c4.1,0,8.1-0.1,12.1-0.3V525
				l188,188c5.8-5.6,11.5-11.4,16.8-17.4L527.3,507.9h260.5c0-1.5,0.1-3,0.1-4.5c0-6.6-0.3-13.2-0.7-19.7H527.3L707.8,303.3z"/>
			<g>
				<path fill="#EE7229" d="M787.7,492c-0.1-2.8-0.3-5.5-0.4-8.3h-19.6c0.7,8,0.9,16.1,0.4,24.2h19.8c0-1.5,0.1-3,0.1-4.5
					C788,499.5,787.9,495.8,787.7,492z"/>
				<path fill="#EE7229" d="M706.7,704.6c0.1-0.1,0.3-0.3,0.4-0.4c2.7-2.8,5.4-5.7,8-8.6l-23.7-23.7c-4.3,6.7-9,13.4-14.2,20
					l21,21.1c0,0,0,0,0,0C701.1,710.2,703.9,707.5,706.7,704.6z"/>
				<path fill="#EE7229" d="M486,239.2c8.7-1,14.1-1.1,14.1-1.1c3.3,0,6.7,0,10.1,0.1v-24.5c-4-0.2-8-0.3-12.1-0.3
					c-4.1,0-8.1,0.1-12.1,0.3V239.2z"/>
				<path fill="#EE7229" d="M707.8,303.3C707.7,303.3,707.7,303.2,707.8,303.3c-2.8-2.9-5.6-5.7-8.4-8.4c-0.1-0.1-0.3-0.3-0.4-0.4
					c-2.8-2.7-5.6-5.3-8.6-7.9c0,0,0,0,0,0l-24.1,24.1c3.4,7.7,6.6,15.7,10.2,24.1L707.8,303.3z"/>
				<path fill="#EE7229" d="M235.5,507.9c-0.5-8-0.6-16-0.2-24.2H209c-0.2,2.7-0.3,5.5-0.4,8.3c-0.1,3.8-0.3,7.6-0.3,11.4
					c0,1.5,0.1,3,0.1,4.5H235.5z"/>
				<path fill="#EE7229" d="M510.2,757.8c-8.1,0-16.2-0.3-24.2-0.8v36c4,0.2,8,0.3,12.1,0.3c4.1,0,8.1-0.1,12.1-0.3V757.8z"/>
				<path fill="#EE7229" d="M281.2,695.6c2.6,2.9,5.3,5.8,8,8.6c0.1,0.1,0.3,0.3,0.4,0.4c2.8,2.9,5.6,5.7,8.4,8.4c0,0,0,0,0,0
					l37.8-37.8c-5.7-7.3-10.6-13.5-15.1-19.1L281.2,695.6z"/>
				<path fill="#EE7229" d="M297.3,294.5c-0.1,0.1-0.3,0.2-0.4,0.4c-2.9,2.8-5.7,5.6-8.4,8.5l26.7,26.7c7.8-4.6,15.4-8.1,22.8-11.4
					l-32.1-32.1C303,289.1,300.1,291.7,297.3,294.5z"/>
			</g>
			<path fill="#FAB43A" d="M233.7,405.3c-0.8-2.7,65.5-25.8,65.5-25.8l6.9,16.6l-59.6,30.2L233.7,405.3z"/>
			<polygon fill="#FAB43A" points="715,388.6 679.6,438.1 699.8,444.1 736.1,391.7 			"/>
			<polygon fill="#A02E2A" points="489.5,632.5 543.9,671.8 536.9,694 476.9,652.9 			"/>
			<polygon fill="#A02E2A" points="417.4,265.4 405.3,316.8 418.5,321.8 438.6,266.4 			"/>
			<polygon fill="#A02E2A" points="457.5,717.7 411.8,744.2 417.2,757.2 471.3,733.8 			"/>
			<polygon fill="#FAB43A" points="607.7,580.6 562,607.1 567.3,620.1 621.5,596.7 			"/>
			<g>
				<path fill="#C73D29" d="M363.9,331.3c-54.7,0-53.2,84.7,1.3,84.7C419.9,416,418.5,331.3,363.9,331.3z"/>
				<path fill="#A02E2A" d="M348.2,370.6h-1c-6.6,0-12,5.8-11.9,12.3c0.1,6.7,5.7,11.9,12.3,11.9h1c6.6,0,12-5.8,11.9-12.3
					C360.4,375.9,354.8,370.6,348.2,370.6z"/>
				<path fill="#A02E2A" d="M366.4,342.4h-1c-5,0-9,4.3-8.9,9.2c0.1,5,4.3,8.9,9.2,8.9h1c4.9,0,9-4.3,8.9-9.2
					C375.6,346.3,371.4,342.4,366.4,342.4z"/>
				<path fill="#A02E2A" d="M381.6,375.7c-5,0.1-8.9,4.3-8.9,9.2v1.3c0,4.9,4.3,9,9.2,8.9c5-0.1,8.9-4.3,8.9-9.2v-1.3
					C390.8,379.7,386.5,375.6,381.6,375.7z"/>
			</g>
			<g>
				<path fill="#C73D29" d="M358,585.9c-54.7,0-53.2,84.7,1.3,84.7C414,670.6,412.6,585.9,358,585.9z"/>
				<path fill="#A02E2A" d="M362.5,634.3c-15.6,0-15.2,24.2,0.4,24.2C378.6,658.5,378.1,634.3,362.5,634.3z"/>
				<path fill="#A02E2A" d="M343.4,604c-5,0.1-8.9,4.3-8.9,9.2v1c0,5,4.3,9,9.2,8.9c5-0.1,8.9-4.3,8.9-9.2v-1
					C352.7,608,348.3,604,343.4,604z"/>
				<path fill="#A02E2A" d="M374.7,612.1c-11.7,0-11.4,18.2,0.3,18.2C386.7,630.3,386.4,612.1,374.7,612.1z"/>
			</g>
			<g>
				<path fill="#C73D29" d="M675.9,607.7c-54.7,0-53.2,84.7,1.3,84.7C731.9,692.4,730.4,607.7,675.9,607.7z"/>
				<path fill="#A02E2A" d="M676.3,656.1c-15.6,0-15.2,24.2,0.4,24.2C692.4,680.3,691.9,656.1,676.3,656.1z"/>
				<path fill="#A02E2A" d="M663.3,626.8h-1c-4.9,0-9,4.3-8.9,9.2c0.1,5,4.3,8.9,9.2,8.9h1c5,0,9-4.3,8.9-9.2
					C672.4,630.8,668.2,626.8,663.3,626.8z"/>
				<path fill="#A02E2A" d="M693.5,633.9h-1c-5,0-9,4.3-8.9,9.2c0.1,5,4.3,8.9,9.2,8.9h1c4.9,0,9-4.3,8.9-9.2
					C702.7,637.8,698.5,633.9,693.5,633.9z"/>
			</g>
			<g>
				<path fill="#C73D29" d="M643.1,326.8c-54.7,0-53.2,84.7,1.4,84.7C699.1,411.5,697.7,326.8,643.1,326.8z"/>
				<path fill="#A02E2A" d="M634.5,344h-0.8c-15.6,0-15.2,24.2,0.4,24.2h0.7C650.5,368.2,650.1,344,634.5,344z"/>
				<path fill="#A02E2A" d="M665.9,373.2c-7.8,0-7.6,12.1,0.2,12.1C673.9,385.3,673.7,373.2,665.9,373.2z"/>
				<path fill="#A02E2A" d="M642.7,384.3h-1c-7.8,0-7.6,12.1,0.2,12.1h1C650.7,396.4,650.5,384.3,642.7,384.3z"/>
			</g>
			<g>
				<path fill="#A87C50" d="M630.9,540.5c2.5-6.7,2.5-15.3,6.1-21.3c5.6-9.3,8.5-4.1,16.2-1c15.9,6.4,24.2-8.9,26.5-23.2
					c2.8-17.1-7.7-25.1-21.4-33c-14.9-8.5-38.6-14.3-55.7-9.5c-15.5,4.4-36.5,24.3-28,41.3c6.1,12.2,26.9,5,32.7,17.1
					c6.3,13.2-12.5,27-0.5,39.5C615.5,559.7,627.4,549.9,630.9,540.5z"/>
				<path fill="#D7C58D" d="M607.7,471c-20.2,4.1-29,16.6-30.9,26c7.9,7.7,25.1,3.1,30.4,14c6.3,13.2-12.5,27-0.5,39.5
					c8.8,9.2,20.8-0.6,24.3-10.1c2.5-6.7,2.5-15.3,6.1-21.3c5.6-9.3,8.5-4.1,16.2-1c9.3,3.8,16,0,20.4-6.5
					C677.5,485.9,635.8,465.3,607.7,471z"/>
				<g>
					<path fill="#C3996D" d="M588.4,502c7.5,1.5,15.4,2.2,18.7,9c0.6,1.3,0.9,2.6,1.1,3.9c0.3-0.5,0.6-0.8,0.6-0.8
						s8.8-18.1-1.1-22.1C602.2,489.8,594.5,496,588.4,502z"/>
					<path fill="#C3996D" d="M635.9,504.1c-6.5,4-3.7,14.4-1.2,20.8c0.6-2.1,1.3-4.1,2.3-5.8c5.6-9.3,8.5-4.1,16.2-1
						c0.8,0.3,1.5,0.5,2.2,0.7C653.3,505.2,643.7,499.4,635.9,504.1z"/>
				</g>
			</g>
			<g>
				<path fill="#A87C50" d="M515.9,356.1c2.5-6.7,2.5-15.3,6.1-21.3c5.5-9.3,8.5-4.1,16.2-1c15.9,6.4,24.2-8.9,26.5-23.2
					c2.7-17.1-7.7-25.1-21.4-33c-14.9-8.5-38.7-14.3-55.8-9.5c-15.5,4.4-36.5,24.3-28,41.3c6.1,12.2,26.9,5,32.7,17.1
					c6.3,13.2-12.5,27-0.5,39.5C500.5,375.3,512.4,365.5,515.9,356.1z"/>
				<path fill="#D7C58D" d="M492.7,286.7c-20.2,4.1-29,16.6-30.9,26c7.9,7.7,25.1,3.1,30.4,14c6.3,13.2-12.5,27-0.5,39.5
					c8.8,9.2,20.8-0.6,24.3-10.1c2.5-6.7,2.5-15.3,6.1-21.3c5.5-9.3,8.5-4.1,16.2-1c9.3,3.8,16,0,20.4-6.5
					C562.6,301.5,520.8,280.9,492.7,286.7z"/>
				<g>
					<path fill="#C3996D" d="M473.5,317.6c7.5,1.5,15.4,2.2,18.7,9c0.6,1.3,0.9,2.6,1.1,3.9c0.3-0.5,0.6-0.8,0.6-0.8
						s8.8-18.1-1.1-22C487.2,305.4,479.6,311.6,473.5,317.6z"/>
					<path fill="#C3996D" d="M520.9,319.7c-6.5,4-3.7,14.4-1.2,20.8c0.6-2.1,1.3-4.1,2.4-5.8c5.5-9.3,8.5-4.1,16.2-1
						c0.7,0.3,1.4,0.5,2.2,0.7C538.4,320.9,528.7,315,520.9,319.7z"/>
				</g>
			</g>
			<g>
				<path fill="#A87C50" d="M400.5,535.9c-1.2-7-5.5-14.5-5.4-21.5c0.2-10.8,5.3-7.8,13.5-9c17-2.4,16.4-19.9,11.3-33.3
					c-6.2-16.2-19.2-17.8-35.1-17.8c-17.2,0.1-40.6,7-53,19.8c-11.2,11.5-19.4,39.3-3.5,49.8c11.4,7.5,25.8-9.2,36.9-1.6
					c12.1,8.2,2.7,29.7,19.4,34.5C396.8,560.2,402.2,545.8,400.5,535.9z"/>
				<path fill="#D7C58D" d="M345.6,487.5c-15.4,13.7-16.8,28.9-13.7,38c10.7,2.7,23.3-10,33.3-3.1c12.1,8.2,2.7,29.7,19.4,34.5
					c12.2,3.5,17.7-11,15.9-20.9c-1.2-7-5.5-14.5-5.4-21.5c0.2-10.8,5.3-7.8,13.5-9c9.9-1.4,13.9-8,14.4-15.9
					C413.5,465.2,367,468.4,345.6,487.5z"/>
				<g>
					<path fill="#C3996D" d="M344.5,523.8c7.2-2.5,14.5-5.8,20.7-1.6c1.2,0.8,2.1,1.8,2.9,2.8c0.1-0.6,0.1-1,0.1-1s-1.5-20-12-18.5
						C350.2,506.4,346.7,515.6,344.5,523.8z"/>
					<path fill="#C3996D" d="M386.6,501.9c-3.6,6.7,4,14.3,9.4,18.7c-0.5-2.1-0.9-4.2-0.9-6.2c0.2-10.8,5.3-7.8,13.5-9
						c0.8-0.1,1.5-0.3,2.2-0.5C402.2,494.1,390.9,493.9,386.6,501.9z"/>
				</g>
			</g>
			<path fill="#FAB43A" d="M429.5,573.2l3,52.9c0,0,31-16.6,43.1-34L429.5,573.2z"/>
			<path fill="#FAB43A" d="M569.5,367.2l-34,40.8c0,0,35.6,17.4,55.2,7.6L569.5,367.2z"/>
			<path fill="#FAB43A" d="M269.9,541.5l-34,40.9c0,0,35.5,17.4,55.2,7.6L269.9,541.5z"/>
			<path fill="#FAB43A" d="M713.7,471.6l-3.8,58.2c0,0,38.6-7.6,47.7-28L713.7,471.6z"/>
			<polygon fill="#076C92" points="284.1,490.5 272.2,502.4 275.7,514 296.9,513.2 309.8,458.7 305.5,451.9 			"/>
			<g>
				<path fill="#076C92" d="M438.2,409.9l-2.5,9.1c0,0,12.1,19.7,13.1,18.2c1-1.5,37.3-38.8,37.3-38.8l-2.5-9.6"/>
				<polygon fill="#4FB692" points="471,376.7 438.2,409.9 449.3,426.1 483.6,388.8 				"/>
			</g>
			<g>
				<path fill="#076C92" d="M553.1,732.3l-2,13.1l14.1,9.6c0,0,30.3-25.7,35.6-31l-2.3-12.9L553.1,732.3z"/>
				<polygon fill="#4FB692" points="591.4,693 553.1,732.3 565.2,742.9 598.5,711.1 				"/>
			</g>
			<g>
				<polygon fill="#076C92" points="370.8,685.9 366.3,695.5 369.8,715.2 428.8,703.6 431.3,695 				"/>
				<path fill="#4FB692" d="M370.8,685.9c3,0,61.5-13.1,61.5-13.1l-1,22.2l-57.5,12.1L370.8,685.9z"/>
			</g>
			<g>
				<polygon fill="#076C92" points="668.3,540.4 663.5,549.3 669.8,595.7 690.3,588.6 691.8,576 				"/>
				<polygon fill="#4FB692" points="668.3,540.4 673.4,583.2 691.8,576 686.5,534.4 				"/>
			</g>
			<polygon fill="#4FB692" points="281.6,458.4 269,508.8 286.1,509.8 302.3,458.4 			"/>
			<g>
				<path fill="#076C92" d="M588.9,280.5c-3,0-18.2,3-18.2,3l4,8.1l48.4,20.2l13.1-11.1l1-14.1"/>
				<polygon fill="#4FB692" points="587.9,268.4 570.7,283.5 620.1,302.7 637.3,286.5 				"/>
			</g>
			<g>
				<path fill="#4FB692" d="M517.9,547.7c0-0.4,0-0.7,0-1.1c-0.1-0.3-0.3-0.5-0.4-0.8L517.9,547.7z"/>
				<path fill="#4FB692" d="M553.7,468.8c5.2-9.1,13.5-14.2,11.8-26.3c-11.4-0.1-20.3,18.9-29,25.1c-3-3.5-6.8-27.5-14.5-23.2
					c-7.1,3.9,5.3,25.5,5.7,30.5c1.2,13.8-6.4,24-9,35.6c-2.8-4.8-5.6-9.7-8.1-14.7c-6.9-13.7-9-25.4-8.4-40.3
					c0.3-7.2-0.1-13.7-8.4-5.5c-5.4,5.3-3.8,15-7.5,20.7c-6.2-3.2-17.2-27.1-22.5-26.5c-12,1.3,6,30.4,7.5,34
					c-7.4,4.4-19.3-1.9-24.8,4.8c6.7,14.6,40.2,10.5,51.6,22.1c5,5.1,10.3,11.6,15.2,18.7c-13.9-6.5-29.3,0.1-44.5-7.8
					c-4.5-2.3-19.7-22.1-26-17c-6.9,5.5,13.7,18.2,15.9,22.3c-9.1,5.7-30,6.6-34.3,17.2c10.5,6.2,18.4,0.5,28.8-0.8
					c16.4-2,3.4,10.9,9,19.8c11,0.7,15.4-17.5,25.1-21.2c12.9-4.9,28.8-0.7,35.6,9.2c3.7,5.3,7.6,28,18.2,24.6
					c9.4-3-0.6-25.1-3.1-30c-7-13.7-11.9-26.6,1.1-40.3c7.2-7.5,25.7-4.6,29.2-15C562.5,476.1,545.6,483.2,553.7,468.8z"/>
			</g>
		</g>
		<g>
			<path fill="#FFFFFF" d="M112.5,821.4L84.7,585.2c0,0-32.4-246.2-35.3-264.3c-2.9-18.1-38.8-4.2-33.1,70.7
				c4,52.6,28,157,31.5,185.3c3.4,28.3,28.5,248.4,41,255.9C101.3,840.3,111.8,847.9,112.5,821.4z"/>
			<path fill="#0B4068" d="M77.1,823.2c0,0-21.1-159.9-25.1-179.5c-4.6-22.4,38.6-40.5,45.3-8.3c6.7,32.2,24.6,189.7,18.1,203.2
				C109,852.1,77.1,844.5,77.1,823.2z"/>
			<path fill="#FAB43A" d="M88.7,645.9c0.3,6.7-5.3,12.4-12.6,12.8c-7.3,0.4-13.4-4.8-13.8-11.5c-0.3-6.7,5.3-12.4,12.6-12.8
				C82.2,634.1,88.3,639.2,88.7,645.9z"/>
		</g>
		<g>
			<g>
				<path fill="#FFFFFF" d="M988,493.2c-9.1-1.5,0.3-16.6,9.9-47.9c2.5-8.3,3.7-13.1,5.8-23.1c2.7-10.4-11.1-16.1-12.9-8
					c-6.6,24.9-16.2,63.9-18.1,68.2c-3.1,6.8-13.2,5.7-10.9-5.2c1.2-5.8,10.3-41.5,14.3-62.9c0.9-8.7-12.2-12.3-15.1-3.5
					c-6.2,31.9-11,48.8-14.4,63.4c-3.5,15.1-11.8,11.8-12.5,1.4c-0.4-5.2,17.5-61.4,13.3-63.1c-7.1-4.6-19.3,21.7-24.4,40.7
					c-18.1,68.2,9.5,81.1,9.5,81.1c-49.7,237.2-57.2,230.2-61.4,253.4c-3.6,19.6,26.2,35.5,33.4-2.3c7.2-37.8,60.7-242,60.7-242
					s40.9-10.4,57.2-85.7c5.8-26.5-5.1-28.8-6.9-23.7C1008.7,448.1,996.4,494.6,988,493.2z"/>
			</g>
		</g>
		<g>
			<polygon fill="#FAB43A" points="195.9,97.3 210,148.2 259.6,166.1 208.8,180.2 190.8,229.9 176.7,179 127.1,161 177.9,146.9 			
				"/>
		</g>
		<g>
			<polygon fill="#FAB43A" points="812.8,788.4 826.8,841.5 878.2,860.8 825,874.8 805.7,926.2 791.7,873.1 740.3,853.8 
				793.4,839.8 			"/>
		</g>
		<g>
			<path fill="#EE7229" d="M210,148.2l-0.3-1.1c-0.3,0.3-0.5,0.6-0.8,0.9c-12,12-26.2,21.3-41.7,27.6l9.5,3.4l14.1,50.9l17.9-49.7
				l50.9-14.1L210,148.2z"/>
		</g>
		<g>
			<path fill="#EE7229" d="M826.8,841.5l-0.6-2.4c-13.6,13.2-30,23-47.8,29l13.4,5l14,53.1l19.3-51.4l53.1-14L826.8,841.5z"/>
		</g>
	</g>
</g>
</svg>
