<?xml version="1.0" encoding="utf-8"?>
<!-- Generator: Adobe Illustrator 24.2.3, SVG Export Plug-In . SVG Version: 6.00 Build 0)  -->
<svg version="1.1" id="Capa_1" xmlns="http://www.w3.org/2000/svg" xmlns:xlink="http://www.w3.org/1999/xlink" x="0px" y="0px"
	 viewBox="0 0 1024 1024" enable-background="new 0 0 1024 1024" xml:space="preserve">
<path fill="#B3DFF2" d="M1004.7,590.5c0,0-19.7,244.7-191.2,317.8c-171.6,73.1-495,92.8-672.2-73.1c-177.2-165.9-137.8-464,0-630
	C279.1,39.3,563.1,11.2,692.5,61.8C821.9,112.4,1015.9,216.5,1004.7,590.5z"/>
<path opacity="0.3" fill="#02988D" d="M344.4,500.5C191.8,473.3,90.5,515,23.9,574.6c6.6,97.2,42.6,190.7,117.4,260.6
	c177.2,165.9,500.6,146.2,672.2,73.1c171.6-73.1,191.2-317.8,191.2-317.8c1-33.3,0.4-64.4-1.7-93.6
	C865.9,649.9,675.6,559.6,344.4,500.5z"/>
<g>
	<defs>
		<path id="SVGID_1_" d="M1004.7,590.5c0,0-19.7,244.7-191.2,317.8c-171.6,73.1-495,92.8-672.2-73.1c-177.2-165.9-137.8-464,0-630
			C279.1,39.3,563.1,11.2,692.5,61.8C821.9,112.4,1015.9,216.5,1004.7,590.5z"/>
	</defs>
	<clipPath id="SVGID_2_">
		<use xlink:href="#SVGID_1_"  overflow="visible"/>
	</clipPath>
	<g clip-path="url(#SVGID_2_)">
		<g>
			<path fill="#0B4068" d="M588.8,266.8c0,0-2.3,144.1,11.9,152.6c14.2,8.5,84.3,6,92.7,1.8c8.4-4.2,0-156.9-3.4-159.5
				C686.7,259.2,593,260,588.8,266.8z"/>
			<path fill="#FAB43A" d="M577.8,266.8c0,0-2.3,145.3,11.9,153.9c14.2,8.6,84.3,6.1,92.7,1.8c8.4-4.3,0-158.3-3.4-160.9
				C675.7,259.2,582.1,260,577.8,266.8z"/>
			<path fill="#A02E2A" d="M657.5,314.6c0,14-11.3,25.3-25.3,25.3c-14,0-25.3-11.3-25.3-25.3c0-14,11.3-25.3,25.3-25.3
				C646.1,289.3,657.5,300.7,657.5,314.6z"/>
			<path fill="#E84920" d="M663.8,363.7l-69.6,3c-7,0.3-6.3,11.5,0.6,11.2l69.6-3C671.5,374.7,670.8,363.4,663.8,363.7z"/>
			<path fill="#E84920" d="M663.8,390l-69.6,3c-7,0.3-6.3,11.5,0.6,11.2l69.6-3C671.5,400.9,670.8,389.7,663.8,390z"/>
			<ellipse fill="#E84920" cx="625.1" cy="314.6" rx="25.3" ry="25.3"/>
		</g>
		<path fill="#FEDA93" d="M556.1,402.1c2.9-1,45.4-86.8,56-83.9c10.6,2.9-14.5,60.8-14.5,60.8s10.6-4.8,14.5-1
			c3.9,3.9,2.9,11.6,2.9,11.6s11.6-3.9,15.4,0c3.9,3.9,2.9,12.5,2.9,12.5s5.8,1,7.7,6.8c1.9,5.8-1.9,13.5-1.9,13.5s7.7-1.9,6.8,3.9
			c-1,5.8-21.2,37.6-36.7,47.3c-15.4,9.6-31.8,15.4-36.7,21.2c-4.8,5.8-73.3,130.3-73.3,130.3l-31.8-18.8l49.2-110"/>
		<path fill="#FEDA93" d="M421.1,622.1c0,0,99.4-154.4,107.1-165c7.7-10.6,3.8-57.9,10.6-64.7c6.8-6.8,23.2-12.5,30.9-10.6
			c7.7,1.9,22.2,26.1,20.3,33.8c-1.9,7.7-15.4-1.9-21.2-2.9c-5.8-1,7.7,31.8,2.9,49.2c-4.8,17.4-92.6,145.7-92.6,145.7"/>
		<path fill="#E84920" d="M302.4,487.1c0,0,53.1,1,71.4,38.6c15.2,31.3,28,78.2,28,78.2L356.4,625"/>
		<path fill="#E84920" d="M302.4,487.1c0,0,53.1,1,71.4,38.6c15.2,31.3,28,78.2,28,78.2L356.4,625"/>
		<path fill="#A02E2A" d="M390.7,568.3l-50,16.9l15.6,39.9l45.4-21.2C401.8,603.8,397.4,587.8,390.7,568.3z"/>
		<path fill="#FAB43A" d="M604.9,554.1c0,0,14.3,44.3,13,52.1c-2.9,17.4-25.1,118.2-34.7,128.8c-9.7,10.6-274,55-276.9,55
			c-2.9,0-16.4-39.6-16.4-52.1"/>
		<path opacity="0.2" fill="#34314F" d="M545.5,680l-174.6,10.6l-81.1,47.3c0,12.5,13.5,52.1,16.4,52.1c2.9,0,267.3-44.4,276.9-55
			l-18.8-23.2L545.5,680z"/>
		<path fill="#FAB43A" d="M207.2,471.6c0,0-52.3,21.2-84.8,93.3c-32.5,72.1,41,373.1,41,373.1s183.7,53.7,234.6,17
			c50.9-36.7-28.3-384.4-38.2-416.9c-9.9-32.5-75.8-65.5-75.8-65.5L207.2,471.6z"/>
		<path fill="#E84920" d="M351.6,597.5c-3.8,2.1-73.8,130.3-62.2,152c11.6,21.7,262-24.6,275-37.6c13-13,44.9-156.3,40.5-157.8
			C600.5,552.7,367.5,588.9,351.6,597.5z"/>
		<path fill="#FAB43A" d="M319.8,655.5l169.4,76.8c39.7-8,70.8-16.1,75.1-20.5c5.2-5.2,13.4-31,21-60.3l-154.9-70.7
			c-40.3,7.1-73.3,13.6-78.9,16.7C349.9,598.5,334.8,624.8,319.8,655.5z"/>
		<path fill="#A02E2A" d="M564.4,711.9c4.6-4.6,11.6-25.5,18.4-50.6C550.1,647,458,606.7,409.1,584.7c-30.1,5.5-52.9,10.4-57.5,12.9
			c-1.5,0.8-13.8,22.1-27.1,48.6c42.5,17.1,138.1,58.8,188.9,81.1C541,721.1,560.9,715.3,564.4,711.9z"/>
		<path id="SVGID_x5F_3_x5F_" fill="none" d="M341,635.7l220,85.9"/>
		<text>		<textPath  xlink:href="#SVGID_x5F_3_x5F_" startOffset="17.383%">
<tspan  fill="#FAB43A" font-family="'Sniglet-Regular'" font-size="69.4754px" letter-spacing="15">PIZZA</tspan>		</textPath>
</text>
		<path fill="#FEDA93" d="M205.9,658.8l38.6,96.5c0,0,34.7-1.5,86.8-11.6c52.1-10.1,86.8-24.6,92.6-30.4
			c5.8-5.8,27.5-40.5,39.1-40.5c11.6,0-10.1,39.1-2.9,43.4c7.2,4.3,43.4-34.7,56.4-33.3c13,1.4,2.9,24.6,2.9,24.6s11.6-7.2,14.5,0
			c2.9,7.2-14.5,27.5-14.5,27.5s17.4-15.9,20.3-7.2c2.9,8.7-24.6,24.6-24.6,24.6s18.8-2.9,15.9,7.2c-2.9,10.1-42,20.3-102.8,26.1
			c0,0-185.3,65.1-235.9,53.6c-50.7-11.6-53.6-123-53.6-123"/>
		<path fill="#E84920" d="M122.9,755.3c0,0-27-165.2-0.5-190.4c26.5-25.3,77.2-23.8,93.1,25.4c15.9,49.2,39.1,134.6,39.1,134.6
			S147.5,766.9,122.9,755.3z"/>
		<path fill="#A02E2A" d="M247.7,699.7c-35.4,16.2-97.3,30.8-127.5,37.4c1.6,11.2,2.7,18.2,2.7,18.2
			c24.6,11.6,131.7-30.4,131.7-30.4S251.9,714.9,247.7,699.7z"/>
		<path fill="#FABF84" d="M581.2,393.9c0,0,15.9,15,11.1,22.2c-4.8,7.2-21.2-0.5-23.6,1c-2.4,1.4,9.7,16.9,2.9,29.9
			c-6.8,13-17.4,17.4-17.4,17.4s15.4-10.1,13-23.2c-2.4-13-8.2-26.5-3.4-29.4c4.8-2.9,18.3,3.4,21.7,0
			C589,408.4,581.2,393.9,581.2,393.9z"/>
		<path fill="#FABF84" d="M592.3,416.1c0,0-3.8,13.2,2.4,16c4,1.8,9.8-10.9,9.8-10.9s-4,13.4-0.7,16.3c3.3,2.9,13.4-8,13.4-8
			s-3.3,12.7,0,14.5c3.3,1.8,8.7-4.3,8.7-4.3s-2.5,14.5,3.3,13.4c0,0-6.9,0.4-7.2-5.8c0,0-4.3,3.3-7.2,1.8c-2.9-1.4-2.5-8.7-2.5-8.7
			s-8,5.1-10.9,2.5c-2.9-2.5-2.5-6.9-2.5-6.9s-3.1,3.7-6.5,1.1c-6.2-4.7-4.7-21.3-4.7-21.3L592.3,416.1"/>
		<g>
			<path fill="#FFFFFF" d="M495.4,192l-21,60.4c0,0-17.5-11.8-26.7,3.7c-9.2,15.5,15.5,27,26,20.1c6.4-4.3,16.3-29,23.1-47.6
				l42.1,0.6l-4.8,22.7c0,0-10.4-2.5-14,6.5c-3.6,9.1,19,9.6,24.6,3.2c5.6-6.4,18.4-67.9,18.4-67.9L495.4,192z M500.4,218.4
				c2.3-6.6,3.7-11,3.7-11l39.1,1.5l-2.3,10.9L500.4,218.4z"/>
		</g>
	</g>
	<g clip-path="url(#SVGID_2_)">
		<g>
			<polygon fill="#076C92" points="759.8,93.4 773.3,986.9 1082,986.9 1082,93.4 			"/>
			<polygon fill="#0B4068" points="734.7,93.4 744.3,986.9 798.4,986.9 792.6,93.4 			"/>
			<path fill="#0B4068" d="M844.7,149.3c0,0,1,289.5,16.4,299.1c15.4,9.6,122.5,3.9,128.3-1.9c5.8-5.8,0-287.6-9.7-299.1
				C970.1,135.8,846.6,130,844.7,149.3z"/>
			<path fill="#0B4068" d="M854.3,637.6c0,0-1.9,297.2,13.5,306.8c15.4,9.6,125.4-3.9,131.2-9.6c5.8-5.8,0-287.6-9.6-299.1
				C979.8,624.1,875.5,625,854.3,637.6z"/>
			<path fill="#0B4068" d="M1082,494.3l-235.4,6.3c0,0-1.9,79.1,7.7,83c6.4,2.6,144.5-0.4,227.7,0.6V494.3z"/>
		</g>
		<path fill="#FAB43A" d="M802.2,319.9c0,8.1-5.8,14.7-12.9,14.7l0,0c-7.1,0-12.9-6.6-12.9-14.7v-45.8c0-8.1,5.8-14.7,12.9-14.7l0,0
			c7.1,0,12.9,6.6,12.9,14.7V319.9z"/>
		<path fill="#FAB43A" d="M802.2,864.1c0,8.1-5.8,14.7-12.9,14.7l0,0c-7.1,0-12.9-6.6-12.9-14.7v-45.8c0-8.1,5.8-14.7,12.9-14.7l0,0
			c7.1,0,12.9,6.6,12.9,14.7V864.1z"/>
	</g>
</g>
<path fill="#E84920" d="M284.6,465c0,0,33,24.5,37.7,35.8c4.7,11.3-7.5,34.9-7.5,34.9s-25.4-24.5-40.5-32"/>
<path fill="#E84920" d="M184.8,450.9c0,0-20.7,16-15.1,48c1.8,10.2,84.8,57.5,96.1,54.6c11.3-2.8,11.3-46.2,11.3-46.2
	S194.2,459.4,184.8,450.9z"/>
<path fill="#FEDA93" d="M183.8,426.4c0,0-8.5,41.5,1.9,49c13.5,9.8,79.1,40.5,91.4,32c12.3-8.5,15.1-59.4,15.1-59.4
	S204.5,410.4,183.8,426.4z"/>
<path fill="#0B4068" d="M111.3,267.2c0,0,9.4,92.3,18.8,131.9c9.4,39.6,54.2,48,73,33c27.1-21.7,57-119.6,57-119.6l-3.8-77.2
	l-52.8-20.7"/>
<path fill="#FEDA93" d="M258.2,229.5c0,0-28.3,37.7-22.6,73.5c5.7,35.8,1.9,47.1-11.3,45.2c-13.2-1.9-18.8-58.4-50.9-56.5
	c-32,1.9-26.4,73.5,11.3,75.4c0,0,3.3,59.4,12.7,70.7c38.9,46.7,183.1,22.9,183.1-56.8c0-57.9-18.7-151.4-18.7-151.4H258.2z"/>
<path fill="#FAB43A" d="M309.1,163.6l-11.3-33.9c0,0-17-28.3-98-9.4c-81,18.8-94.2,96.1-88.6,147l22.6,5.7l173.3-39.6L309.1,163.6z"
	/>
<path fill="#E84920" d="M118.8,276.6c0,0,307.1-43.3,309-49c1.9-5.7-15.1-18.8-60.3-9.4c0,0-24.7-85.9-69.7-88.6
	c-21.9-1.3-59.4,28.3-59.4,56.5c0,28.3-0.9,56.5-0.9,56.5l-126.2,24.5C111.3,267.2,103.7,278.5,118.8,276.6z"/>
<path fill="#FABF84" d="M197.5,437.7c0,0,26.6,57,87.1,57c3.8-11.2,5.8-26.8,6.8-36.8C253.3,464.2,214.5,458.1,197.5,437.7z"/>
<path fill="#FABF84" d="M164.9,314.3c0,0,9.2-11.1,17.8-6.3c8.7,4.8,13.5,31.8,6.8,38.6c-6.8,6.8-15-1.4-12.1-9.2
	c2.9-7.7,5.3-12.1,5.3-12.1S173.1,307.1,164.9,314.3z"/>
<path fill="#0B4068" d="M296.4,309.5c1.8,10.6-1.2,20-6.6,20.9c-5.4,0.9-11.2-7-13-17.7c-1.8-10.6,1.2-20,6.6-20.9
	C288.8,290.9,294.6,298.8,296.4,309.5z"/>
<path fill="#FFFFFF" d="M289.1,311.4c0.6,3.5-3.9,7.3-10,8.3c-6.1,1-11.5-1-12.1-4.6c-0.6-3.5,3.9-7.2,10-8.3
	C283.1,305.8,288.5,307.9,289.1,311.4z"/>
<path fill="#0B4068" d="M360.1,298.9c1.8,10.6-1.2,20-6.6,20.9c-5.4,0.9-11.2-7-13-17.7c-1.8-10.6,1.2-20,6.6-20.9
	C352.5,280.3,358.3,288.2,360.1,298.9z"/>
<path fill="#FFFFFF" d="M352.8,300.8c0.6,3.5-3.9,7.3-10,8.3c-6.1,1-11.5-1-12.1-4.6c-0.6-3.5,3.9-7.2,10-8.3
	C346.8,295.2,352.2,297.3,352.8,300.8z"/>
<path fill="#FABF84" d="M331,278.8c0,0-10.1,10.5-7.6,28.2c2.5,17.7,24.2,38,25.7,46.3c1.5,8.3-20.3,22.4-39.8,12.7
	c0,0,27.1-3.6,27.1-12.7c0-9-17.4-24.2-20.6-40.5C312.5,296.5,323.4,282.7,331,278.8z"/>
<path fill="#4FB692" d="M382,334.8c-2.9-5.1-110.7,13-115.1,19.5c0,0,8,73.8,17.4,80.3c9.4,6.5,90-9.6,95.8-23.4
	C385.8,397.6,384.9,339.9,382,334.8z"/>
<polygon fill="#4FB692" points="202.5,312.4 275.8,354.4 272.5,359.7 206.9,321.1 "/>
<polygon fill="#4FB692" points="184.8,367.1 284,426.8 284.3,434.7 172.6,364.5 "/>
<path opacity="0.3" fill="#02988D" d="M382,334.8c-2.6-4.5-89,9.4-110.4,17.1l-69.1-39.5l4.4,8.7l60.3,35.5
	c1.1,9.4,5.7,47.6,11.6,67l-94-56.5l-12.2-2.5l111.7,70.2c9.4,6.5,90-9.6,95.8-23.4C385.8,397.6,384.9,339.9,382,334.8z"/>
<path opacity="0.3" fill="#02988D" d="M367.6,350.3c-25.8,7.1-51.7,11.7-78.5,12.8c-4,0.2-3.7,5.9,0.3,5.8
	c27.4-1.1,53.8-5.8,80.2-13.1C373.4,354.7,371.5,349.2,367.6,350.3z"/>
<path opacity="0.3" fill="#02988D" d="M366.9,373.6c-23.7,7-47.5,11.6-72.2,12.6c-3.7,0.1-3.4,5.9,0.3,5.8
	c25.2-1,49.5-5.7,73.7-12.9C372.2,378.1,370.4,372.6,366.9,373.6z"/>
<path opacity="0.3" fill="#02988D" d="M367.1,396.6c-24.3,7.1-48.7,11.7-74,12.7c-3.8,0.1-3.5,5.9,0.3,5.8
	c25.9-1,50.8-5.7,75.6-12.9C372.6,401.1,370.8,395.6,367.1,396.6z"/>
<polygon fill="#FFFFFF" points="611.2,222.7 551.3,139.7 584.1,122.3 "/>
<polygon fill="#FFFFFF" points="638.2,215 615,135.8 640.1,137.8 "/>
<polygon fill="#FFFFFF" points="562.9,303.7 474.1,313.4 491.5,350 "/>
</svg>
