<svg viewBox="0 -4 512 512" xmlns="http://www.w3.org/2000/svg"><path d="m454.5 162.5c-4.144531 0-7.5 3.355469-7.5 7.5v25h15v-25c0-4.144531-3.355469-7.5-7.5-7.5zm0 0" fill="#353535"/><path d="m348.5 162.5c-4.144531 0-7.5 3.355469-7.5 7.5v25h15v-25c0-4.144531-3.355469-7.5-7.5-7.5zm0 0" fill="#353535"/><path d="m504.5 215h-42v15h42c4.144531 0 7.5-3.359375 7.5-7.5 0-4.144531-3.355469-7.5-7.5-7.5zm0 0" fill="#999"/><path d="m295.5 215c-4.144531 0-7.5 3.355469-7.5 7.5 0 4.140625 3.355469 7.5 7.5 7.5h61v-15zm0 0" fill="#ccc"/><path d="m401.5 215h-45v15h106v-15zm0 0" fill="#999"/><path d="m65 285v196.59375l-24.871094 8.289062c-3.929687 1.308594-6.050781 5.554688-4.742187 9.484376 1.308593 3.933593 5.558593 6.054687 9.484375 4.746093l30-10c3.0625-1.019531 5.128906-3.886719 5.128906-7.117187v-201.996094zm0 0" fill="#ff6337"/><path d="m140 285v196.59375l24.871094 8.289062c3.929687 1.308594 6.050781 5.554688 4.742187 9.484376-1.308593 3.933593-5.558593 6.054687-9.484375 4.746093l-30-10c-3.0625-1.019531-5.128906-3.886719-5.128906-7.117187v-201.996094zm0 0" fill="#ff4128"/><path d="m222.5 192.5h-120v-15h120c4.136719 0 7.5-3.363281 7.5-7.5h15c0 12.40625-10.09375 22.5-22.5 22.5zm0 0" fill="#49c9ff"/><path d="m57.5 292.5h45v-15h-45c-23.433594 0-42.5-19.066406-42.5-42.5s19.066406-42.5 42.5-42.5h45v-15h-45c-31.707031 0-57.5 25.792969-57.5 57.5s25.792969 57.5 57.5 57.5zm0 0" fill="#7dd9ff"/><path d="m127.5 165h-2.5l-27.5 90 50-37.5v-32.5c0-11.046875-8.953125-20-20-20zm0 0" fill="#49c9ff"/><path d="m95 165-7.5 10-7.5-10h-2.5c-11.046875 0-20 8.953125-20 20v32.5l70 37.5-17.5-90zm0 0" fill="#7dd9ff"/><path d="m147.5 255v-30c-16.570312 0-30-13.429688-30-30l-45 75 60 97h30v-72.335938c0-15.210937-5.671875-29.089843-15-39.664062zm0 0" fill="#a8e5ff"/><path d="m102.5 45v90c24.851562 0 45-20.148438 45-45s-20.148438-45-45-45zm0 0" fill="#ffb4a9"/><path d="m117.5 90c0-24.851562-6.714844-45-15-45-24.851562 0-45 20.148438-45 45s20.148438 45 45 45c8.285156 0 15-20.148438 15-45zm0 0" fill="#ffd9d4"/><path d="m132.5 15c-.859375 0-1.691406.089844-2.511719.226562 0-.078124.011719-.148437.011719-.226562 0-8.285156-6.714844-15-15-15-5.21875 0-9.8125 2.671875-12.5 6.714844-2.6875-4.042969-7.28125-6.714844-12.5-6.714844-8.285156 0-15 6.714844-15 15 0 .078125.011719.148438.011719.226562-.820313-.136718-1.65625-.226562-2.511719-.226562-8.285156 0-15 6.714844-15 15s6.714844 15 15 15h60c8.285156 0 15-6.714844 15-15s-6.714844-15-15-15zm0 0" fill="#ff8d7e"/><path d="m117.5 255v-60h-22.5v-30h-15v30c0 12.40625-10.09375 22.5-22.5 22.5v37.5c-9.328125 10.574219-15 24.453125-15 39.664062v72.335938h90v-72.335938c0-15.210937-5.671875-29.089843-15-39.664062zm0 0" fill="#dbf4ff"/><path d="m147.5 232.5c-20.679688 0-37.5-16.820312-37.5-37.5v-30h15v30c0 12.40625 10.09375 22.5 22.5 22.5zm0 0" fill="#a8e5ff"/><path d="m200 85v100c0 4.140625 3.355469 7.5 7.5 7.5s7.5-3.359375 7.5-7.5v-100zm0 0" fill="#999"/><path d="m472.5 185h-30v70l50-40v-10c0-11-9-20-20-20zm0 0" fill="#ff4128"/><path d="m442.5 185h-6c-11 0-20 9-20 20v10l46 40v-50c0-11-9-20-20-20zm0 0" fill="#ff6337"/><path d="m462.5 215-20 55 20 45h30v-100zm0 0" fill="#b3b3b3"/><path d="m416.5 215h46v100h-46zm0 0" fill="#ebebeb"/><path d="m366.5 185h-30v70l50-40v-10c0-11-9-20-20-20zm0 0" fill="#ff4128"/><path d="m336.5 185h-6c-11 0-20 9-20 20v10l46 40v-50c0-11-9-20-20-20zm0 0" fill="#ff6337"/><path d="m356.5 215-20 55 20 45h30v-100zm0 0" fill="#b3b3b3"/><path d="m310.5 215h46v100h-46zm0 0" fill="#ebebeb"/><path d="m202.5 265c0 19.328125 15.671875 35 35 35s35-15.671875 35-35zm0 0" fill="#ffe2a8"/><path d="m202.5 230c0 19.328125 15.671875 35 35 35s35-15.671875 35-35zm0 0" fill="#fff0d3"/><path d="m237.5 177.5c-4.144531 0-7.5-3.359375-7.5-7.5 0-4.136719-3.363281-7.5-7.5-7.5h-15c-4.144531 0-7.5-3.359375-7.5-7.5s3.355469-7.5 7.5-7.5h15c12.40625 0 22.5 10.09375 22.5 22.5 0 4.140625-3.355469 7.5-7.5 7.5zm0 0" fill="#49c9ff"/><path d="m207.5 60c-8.285156 0-15 6.714844-15 15v15c0 8.285156 6.714844 15 15 15s15-6.714844 15-15v-15c0-8.285156-6.714844-15-15-15zm0 0" fill="#999"/><path d="m257.179688 314.6875 10.605468 10.609375-70 70-10.605468-10.609375zm0 0" fill="#999"/><path d="m439.804688 314.691406 69.996093 70-10.605469 10.605469-70-70zm0 0" fill="#808080"/><path d="m185 330v167c0 4.140625 3.355469 7.5 7.5 7.5s7.5-3.359375 7.5-7.5v-187zm0 0" fill="#999"/><path d="m497 310v187c0 4.140625 3.355469 7.5 7.5 7.5s7.5-3.359375 7.5-7.5v-167zm0 0" fill="#808080"/><path d="m482 300-30 15 30 15h30v-30zm0 0" fill="#ffa754"/><path d="m185 300h297v30h-297zm0 0" fill="#ffcb63"/></svg>