<?xml version="1.0" encoding="utf-8"?>
<!-- Generator: Adobe Illustrator 24.2.3, SVG Export Plug-In . SVG Version: 6.00 Build 0)  -->
<svg version="1.1" id="Capa_3" xmlns="http://www.w3.org/2000/svg" xmlns:xlink="http://www.w3.org/1999/xlink" x="0px" y="0px"
	 viewBox="0 0 480 216" enable-background="new 0 0 480 216" xml:space="preserve">
<g>
	<path fill-rule="evenodd" clip-rule="evenodd" fill="#FCD7D2" d="M311.5,92.7c-16,0-29-13-29-29c0-1.5-1.2-2.6-2.6-2.6
		c-1.5,0-2.6,1.2-2.6,2.6c0,18.9,15.4,34.2,34.2,34.2h26.3v-5.3H311.5z M311.5,92.7"/>
	<path fill-rule="evenodd" clip-rule="evenodd" fill="#FFE1A5" d="M443.1,61.1c-1.5,0-2.6,1.2-2.6,2.6c0,16-13,29-29,29h-15.8V98
		h15.8c18.9,0,34.2-15.4,34.2-34.2C445.8,62.3,444.6,61.1,443.1,61.1L443.1,61.1z M443.1,61.1"/>
	<path fill-rule="evenodd" clip-rule="evenodd" fill="#FCD7D2" d="M324.7,130.4v69l-8.7,2.9c-1.4,0.5-2.1,2-1.7,3.3
		c0.5,1.4,2,2.1,3.3,1.7l10.5-3.5c1.1-0.4,1.8-1.4,1.8-2.5v-70.9H324.7z M324.7,130.4"/>
	<path fill-rule="evenodd" clip-rule="evenodd" fill="#FCD7D2" d="M351,130.4v69l8.7,2.9c1.4,0.5,2.1,2,1.7,3.3
		c-0.5,1.4-2,2.1-3.3,1.7l-10.5-3.5c-1.1-0.4-1.8-1.4-1.8-2.5v-70.9H351z M351,130.4"/>
	<path fill-rule="evenodd" clip-rule="evenodd" fill="#FFE1A5" d="M382.6,130.4v69l-8.7,2.9c-1.4,0.5-2.1,2-1.7,3.3
		c0.5,1.4,2,2.1,3.3,1.7l10.5-3.5c1.1-0.4,1.8-1.4,1.8-2.5v-70.9H382.6z M382.6,130.4"/>
	<path fill-rule="evenodd" clip-rule="evenodd" fill="#FFC95B" d="M408.9,130.4v69l8.7,2.9c1.4,0.5,2.1,2,1.7,3.3
		c-0.5,1.4-2,2.1-3.3,1.7l-10.5-3.5c-1.1-0.4-1.8-1.4-1.8-2.5v-70.9H408.9z M408.9,130.4"/>
	<path fill-rule="evenodd" clip-rule="evenodd" fill="#1E1E1E" d="M395.7,119.9l5.3,39.3h10.5v-28.8L395.7,119.9z M395.7,119.9"/>
	<path fill-rule="evenodd" clip-rule="evenodd" fill="#444444" d="M395.7,119.9l-15.8,10.5v28.8H401v-28.8L395.7,119.9z
		 M395.7,119.9"/>
	<path fill-rule="evenodd" clip-rule="evenodd" fill="#FFE1A5" d="M404.5,88.3H401l-10.5,21.1l10.5,21.1l10.5,0V95.3
		C411.5,91.5,408.4,88.3,404.5,88.3L404.5,88.3z M404.5,88.3"/>
	<path fill-rule="evenodd" clip-rule="evenodd" fill="#FFF2D4" d="M387,88.3c-3.9,0-7,3.1-7,7v35.1l21.1,0V88.3H387z M387,88.3"/>
	<g>
		<path fill-rule="evenodd" clip-rule="evenodd" fill="#F9A34E" d="M403.6,98.8c0,1.5-1.2,2.6-2.6,2.6c-1.5,0-2.6-1.2-2.6-2.6
			c0-1.5,1.2-2.6,2.6-2.6C402.5,96.2,403.6,97.4,403.6,98.8z M403.6,98.8"/>
		<path fill-rule="evenodd" clip-rule="evenodd" fill="#F9A34E" d="M403.6,109.4c0,1.5-1.2,2.6-2.6,2.6c-1.5,0-2.6-1.2-2.6-2.6
			c0-1.5,1.2-2.6,2.6-2.6C402.5,106.7,403.6,107.9,403.6,109.4z M403.6,109.4"/>
		<path fill-rule="evenodd" clip-rule="evenodd" fill="#F9A34E" d="M403.6,119.9c0,1.5-1.2,2.6-2.6,2.6c-1.5,0-2.6-1.2-2.6-2.6
			c0-1.5,1.2-2.6,2.6-2.6C402.5,117.3,403.6,118.4,403.6,119.9z M403.6,119.9"/>
		<path fill-rule="evenodd" clip-rule="evenodd" fill="#F9A34E" d="M393.1,98.8c0,1.5-1.2,2.6-2.6,2.6s-2.6-1.2-2.6-2.6
			c0-1.5,1.2-2.6,2.6-2.6S393.1,97.4,393.1,98.8z M393.1,98.8"/>
		<path fill-rule="evenodd" clip-rule="evenodd" fill="#F9A34E" d="M393.1,109.4c0,1.5-1.2,2.6-2.6,2.6s-2.6-1.2-2.6-2.6
			c0-1.5,1.2-2.6,2.6-2.6S393.1,107.9,393.1,109.4z M393.1,109.4"/>
		<path fill-rule="evenodd" clip-rule="evenodd" fill="#F9A34E" d="M393.1,119.9c0,1.5-1.2,2.6-2.6,2.6s-2.6-1.2-2.6-2.6
			c0-1.5,1.2-2.6,2.6-2.6S393.1,118.4,393.1,119.9z M393.1,119.9"/>
	</g>
	<path fill-rule="evenodd" clip-rule="evenodd" fill="#A15634" d="M395.7,46.2v31.6c8.7,0,15.8-7.1,15.8-15.8
		C411.5,53.3,404.5,46.2,395.7,46.2L395.7,46.2z M395.7,46.2"/>
	<path fill-rule="evenodd" clip-rule="evenodd" fill="#C2723B" d="M401,62c0-8.7-2.4-15.8-5.3-15.8c-8.7,0-15.8,7.1-15.8,15.8
		c0,8.7,7.1,15.8,15.8,15.8C398.6,77.8,401,70.7,401,62z M401,62"/>
	<path fill-rule="evenodd" clip-rule="evenodd" fill="#FFE1A5" d="M408.9,37.4c0-3.9-3.1-7-7-7c-2.6,0-4.9,1.5-6.1,3.6l-3.5,9.6
		l3.5,9.6h13.2V37.4z M408.9,37.4"/>
	<path fill-rule="evenodd" clip-rule="evenodd" fill="#FFF2D4" d="M389.6,30.4c-3.9,0-7,3.1-7,7v15.8h13.2V34
		C394.5,31.9,392.2,30.4,389.6,30.4z M389.6,30.4"/>
	<path fill-rule="evenodd" clip-rule="evenodd" fill="#F5813E" d="M329,69c0,4.8-3.9,8.8-8.8,8.8c-4.8,0-8.8-3.9-8.8-8.8
		c0-4.8,3.9-8.8,8.8-8.8C325.1,60.2,329,64.2,329,69z M329,69"/>
	<path fill-rule="evenodd" clip-rule="evenodd" fill="#FFC95B" d="M358.9,88.3c2.9,0,5.3,2.4,5.3,5.3v7c0,2.9-2.4,5.3-5.3,5.3
		c-2.9,0-5.3-2.4-5.3-5.3l-5.3-5.3h5.3v-1.8C353.6,90.7,356,88.3,358.9,88.3L358.9,88.3z M358.9,88.3"/>
	<path fill-rule="evenodd" clip-rule="evenodd" fill="#FFE1A5" d="M316.8,88.3c-2.9,0-5.3,2.4-5.3,5.3v7c0,2.9,2.4,5.3,5.3,5.3
		c2.9,0,5.3-2.4,5.3-5.3l5.3-5.3H322v-1.8C322,90.7,319.7,88.3,316.8,88.3z M316.8,88.3"/>
	<path fill-rule="evenodd" clip-rule="evenodd" fill="#F8B1A7" d="M337.8,46.2v31.6c8.7,0,15.8-7.1,15.8-15.8
		C353.6,53.3,346.5,46.2,337.8,46.2L337.8,46.2z M337.8,46.2"/>
	<path fill-rule="evenodd" clip-rule="evenodd" fill="#FCD7D2" d="M343.1,62c0-8.7-2.4-15.8-5.3-15.8c-8.7,0-15.8,7.1-15.8,15.8
		c0,8.7,7.1,15.8,15.8,15.8C340.7,77.8,343.1,70.7,343.1,62z M343.1,62"/>
	<path fill-rule="evenodd" clip-rule="evenodd" fill="#FFE1A5" d="M351,37.4c0-3.9-3.1-7-7-7c-2.6,0-4.9,1.5-6.1,3.6l-3.5,9.6
		l3.5,9.6H351V37.4z M351,37.4"/>
	<path fill-rule="evenodd" clip-rule="evenodd" fill="#FFF2D4" d="M331.7,30.4c-3.9,0-7,3.1-7,7v15.8h13.2V34
		C336.6,31.9,334.3,30.4,331.7,30.4L331.7,30.4z M331.7,30.4"/>
	<path fill-rule="evenodd" clip-rule="evenodd" fill="#FFE1A5" d="M346.6,88.3h-10.5v42.1l17.6,0V95.3
		C353.6,91.5,350.5,88.3,346.6,88.3L346.6,88.3z M346.6,88.3"/>
	<path fill-rule="evenodd" clip-rule="evenodd" fill="#FFF2D4" d="M336.1,88.3h-7c-3.9,0-7,3.1-7,7v35.1l21.1,0V95.3
		C343.1,91.5,339.9,88.3,336.1,88.3L336.1,88.3z M336.1,88.3"/>
	<path fill-rule="evenodd" clip-rule="evenodd" fill="#1E1E1E" d="M353.6,119.9h-10.5l5.3,31.6h10.5v-17.7
		C358.9,128.5,356.9,123.6,353.6,119.9L353.6,119.9z M353.6,119.9"/>
	<path fill-rule="evenodd" clip-rule="evenodd" fill="#444444" d="M343.1,119.9H322c-3.3,3.7-5.3,8.6-5.3,13.9v17.7h31.6v-17.7
		C348.4,128.5,346.4,123.6,343.1,119.9z M343.1,119.9"/>
	<path fill-rule="evenodd" clip-rule="evenodd" fill="#F9A34E" d="M345.7,98.8c0,1.5-1.2,2.6-2.6,2.6c-1.5,0-2.6-1.2-2.6-2.6
		c0-1.5,1.2-2.6,2.6-2.6C344.5,96.2,345.7,97.4,345.7,98.8z M345.7,98.8"/>
	<path fill-rule="evenodd" clip-rule="evenodd" fill="#F9A34E" d="M345.7,109.4c0,1.5-1.2,2.6-2.6,2.6c-1.5,0-2.6-1.2-2.6-2.6
		c0-1.5,1.2-2.6,2.6-2.6C344.5,106.7,345.7,107.9,345.7,109.4z M345.7,109.4"/>
	<path fill-rule="evenodd" clip-rule="evenodd" fill="#F9A34E" d="M335.2,98.8c0,1.5-1.2,2.6-2.6,2.6c-1.5,0-2.6-1.2-2.6-2.6
		c0-1.5,1.2-2.6,2.6-2.6C334,96.2,335.2,97.4,335.2,98.8z M335.2,98.8"/>
	<path fill-rule="evenodd" clip-rule="evenodd" fill="#F9A34E" d="M335.2,109.4c0,1.5-1.2,2.6-2.6,2.6c-1.5,0-2.6-1.2-2.6-2.6
		c0-1.5,1.2-2.6,2.6-2.6C334,106.7,335.2,107.9,335.2,109.4z M335.2,109.4"/>
</g>
<g>
	<path fill-rule="evenodd" clip-rule="evenodd" fill="#B7D06A" d="M268.1,163.8c0.8-1.6,0.6-3.7-0.8-5c-1.4-1.4-3.4-1.6-5-0.8
		c-0.6-1.7-2.2-3-4.1-3c-1.9,0-3.6,1.3-4.1,3c-1.6-0.8-3.7-0.6-5,0.8c-1.4,1.4-1.6,3.4-0.8,5c-1.7,0.6-3,2.2-3,4.1v4.3l12.9,2.9
		l12.9-2.9v-4.3C271.2,166,269.9,164.4,268.1,163.8L268.1,163.8z M268.1,163.8"/>
	<path fill-rule="evenodd" clip-rule="evenodd" fill="#CBCACA" d="M266.8,180.8l-20.1,5.7l20.1-14.4h8.6
		C275.5,177,271.6,180.8,266.8,180.8z M266.8,180.8"/>
	<path fill-rule="evenodd" clip-rule="evenodd" fill="#EAECEB" d="M241,172.2c0,4.8,3.9,8.6,8.6,8.6l4.3,5.7l4.3-5.7
		c4.8,0,8.6-3.9,8.6-8.6H241z M241,172.2"/>
	<path fill-rule="evenodd" clip-rule="evenodd" fill="#B3B2B3" d="M258.2,99.1c-1.2,0-2.2,1-2.2,2.2v10.1h4.3v-10.1
		C260.4,100.1,259.4,99.1,258.2,99.1z M258.2,99.1"/>
	<path fill-rule="evenodd" clip-rule="evenodd" fill="#B3B2B3" d="M284.4,128.5l-10.1,4.3l10.1,4.3h8.6v-8.6H284.4z M284.4,128.5"/>
	<path fill-rule="evenodd" clip-rule="evenodd" fill="#CBCACA" d="M223.5,128.5h60.9v8.6h-60.9V128.5z M223.5,128.5"/>
	<path fill-rule="evenodd" clip-rule="evenodd" fill="#B3B2B3" d="M284.4,180.8l-10.1,4.3l10.1,4.3h8.6v-8.6H284.4z M284.4,180.8"/>
	<path fill-rule="evenodd" clip-rule="evenodd" fill="#CBCACA" d="M223.5,180.8h60.9v8.6h-60.9V180.8z M223.5,180.8"/>
	<path fill-rule="evenodd" clip-rule="evenodd" fill="#969697" d="M293,203.1c-1.2,0-2.2-1-2.2-2.2v-81c0-1.2,1-2.2,2.2-2.2
		s2.2,1,2.2,2.2v81C295.1,202.1,294.2,203.1,293,203.1z M293,203.1"/>
	<path fill-rule="evenodd" clip-rule="evenodd" fill="#B3B2B3" d="M223.5,203.1c-1.2,0-2.2-1-2.2-2.2v-81c0-1.2,1-2.2,2.2-2.2
		s2.2,1,2.2,2.2v81C225.6,202.1,224.7,203.1,223.5,203.1z M223.5,203.1"/>
	<path fill-rule="evenodd" clip-rule="evenodd" fill="#B3B2B3" d="M258.2,105.6l8.6,23l8.6,0v-5.7
		C275.5,113.3,267.7,105.6,258.2,105.6z M258.2,105.6"/>
	<path fill-rule="evenodd" clip-rule="evenodd" fill="#CBCACA" d="M258.2,105.6c-9.5,0-17.2,7.7-17.2,17.2v5.7h25.9v-5.7
		C266.8,113.3,263,105.6,258.2,105.6z M258.2,105.6"/>
	<path fill-rule="evenodd" clip-rule="evenodd" fill="#444444" d="M227.8,202.4c0,2.4-1.9,4.3-4.3,4.3c-2.4,0-4.3-1.9-4.3-4.3
		c0-2.4,1.9-4.3,4.3-4.3C225.8,198.1,227.8,200,227.8,202.4z M227.8,202.4"/>
	<path fill-rule="evenodd" clip-rule="evenodd" fill="#444444" d="M297.3,202.4c0,2.4-1.9,4.3-4.3,4.3c-2.4,0-4.3-1.9-4.3-4.3
		c0-2.4,1.9-4.3,4.3-4.3C295.4,198.1,297.3,200,297.3,202.4z M297.3,202.4"/>
</g>
</svg>
