<?xml version="1.0" encoding="utf-8"?>
<!-- Generator: Adobe Illustrator 24.2.3, SVG Export Plug-In . SVG Version: 6.00 Build 0)  -->
<svg version="1.1" id="Capa_3" xmlns="http://www.w3.org/2000/svg" xmlns:xlink="http://www.w3.org/1999/xlink" x="0px" y="0px"
	 viewBox="0 0 480 216" enable-background="new 0 0 480 216" xml:space="preserve">
<g>
	<path fill-rule="evenodd" clip-rule="evenodd" fill="#9CB457" d="M261.3,200.7l-7.8-2.6v-34.2c0,0,0,0,0,0c0-1.3-1-2.3-2.3-2.3
		h-18.7l3.1,4.7h13.3l-0.1,0v33.6c0,1,0.6,1.9,1.6,2.2l9.4,3.1c1.2,0.4,2.6-0.3,3-1.5C263.1,202.5,262.5,201.1,261.3,200.7
		L261.3,200.7z M261.3,200.7"/>
	<path fill-rule="evenodd" clip-rule="evenodd" fill="#0BAAE2" d="M300.2,161.5h-18.7c-1.3,0-2.3,1-2.3,2.3c0,0,0,0,0,0
		c0,0,0,34.2,0,34.2l-7.8,2.6c-1.2,0.4-1.9,1.7-1.5,3c0.4,1.2,1.7,1.9,3,1.5l9.4-3.1c1-0.3,1.6-1.2,1.6-2.2v-33.6l-0.1,0l16.5,0
		V161.5z M300.2,161.5"/>
	<path fill-rule="evenodd" clip-rule="evenodd" fill="#F9A34E" d="M256.9,112.4c-1.3,0-2.3,1-2.3,2.3v7.8h4.7v-7.8
		C259.3,113.5,258.2,112.4,256.9,112.4L256.9,112.4z M256.9,112.4"/>
	<path fill-rule="evenodd" clip-rule="evenodd" fill="#CC2026" d="M275.7,112.4c-1.3,0-2.3,1-2.3,2.3v7.8h4.7v-7.8
		C278,113.5,277,112.4,275.7,112.4z M275.7,112.4"/>
	<path fill-rule="evenodd" clip-rule="evenodd" fill="#EF3824" d="M271,119.4h9.4v28.1H271V119.4z M271,119.4"/>
	<path fill-rule="evenodd" clip-rule="evenodd" fill="#FFC95B" d="M252.2,119.4h9.4v28.1h-9.4V119.4z M252.2,119.4"/>
	<path fill-rule="evenodd" clip-rule="evenodd" fill="#B3B2B3" d="M287.7,142.9l-9.4,4.7l9.4,4.7h14.1v-9.4L287.7,142.9z
		 M287.7,142.9"/>
	<path fill-rule="evenodd" clip-rule="evenodd" fill="#CBCACA" d="M230.8,142.9h56.9v9.4h-56.9V142.9z M230.8,142.9"/>
	<path fill-rule="evenodd" clip-rule="evenodd" fill="#9CB457" d="M221.4,133.5v42.2l14.1-9.4v-23.4L221.4,133.5z M221.4,133.5"/>
	<path fill-rule="evenodd" clip-rule="evenodd" fill="#B7D06A" d="M207.4,152.3c0,7.8,6.3,14.1,14.1,14.1l4.7,4.7v-34.4l-18.7,6.3
		V152.3z M207.4,152.3"/>
	<path fill-rule="evenodd" clip-rule="evenodd" fill="#FFE1A5" d="M229.3,114.8h-9.4l6.2,28.1h9.4V121
		C235.5,117.6,232.7,114.8,229.3,114.8L229.3,114.8z M229.3,114.8"/>
	<path fill-rule="evenodd" clip-rule="evenodd" fill="#008CC1" d="M315.8,142.9l-4.7,23.4c7.8,0,14.1-6.3,14.1-14.1L315.8,142.9z
		 M315.8,142.9"/>
	<path fill-rule="evenodd" clip-rule="evenodd" fill="#0BAAE2" d="M315.8,152.3v-9.4l-18.8,9.4v14.1l7,4.7l7-4.7
		C313.7,166.3,315.8,160,315.8,152.3z M315.8,152.3"/>
	<path fill-rule="evenodd" clip-rule="evenodd" fill="#F9A34E" d="M318.9,114.8h-9.4l6.3,37.5h9.4V121
		C325.2,117.6,322.4,114.8,318.9,114.8L318.9,114.8z M318.9,114.8"/>
	<path fill-rule="evenodd" clip-rule="evenodd" fill="#FFC95B" d="M309.6,114.8h-6.2c-3.5,0-6.3,2.8-6.3,6.3v31.2h18.8V121
		C315.8,117.6,313,114.8,309.6,114.8L309.6,114.8z M309.6,114.8"/>
	<path fill-rule="evenodd" clip-rule="evenodd" fill="#FFF2D4" d="M226.1,121c0-3.5-2.8-6.3-6.2-6.3h-6.3c-3.5,0-6.2,2.8-6.2,6.3
		v21.9h18.7V121z M226.1,121"/>
	<path fill-rule="evenodd" clip-rule="evenodd" fill="#EF3824" d="M226.1,166.3l-9.4,23.4l18.7-9.4v-14.1H226.1z M226.1,166.3"/>
	<path fill-rule="evenodd" clip-rule="evenodd" fill="#F15D2A" d="M193.3,166.3h32.8v18.8h-32.8V166.3z M193.3,166.3"/>
	<path fill-rule="evenodd" clip-rule="evenodd" fill="#EF3824" d="M193.3,125.6c-2.6,0-4.7,2.1-4.7,4.7v50.1l9.4,9.4v-59.4
		C198,127.7,195.9,125.6,193.3,125.6L193.3,125.6z M193.3,125.6"/>
	<path fill-rule="evenodd" clip-rule="evenodd" fill="#EF3824" d="M325.2,166.3l-9.4,23.4h23.4v-23.4H325.2z M325.2,166.3"/>
	<path fill-rule="evenodd" clip-rule="evenodd" fill="#F15D2A" d="M297.1,166.3h28.1v18.8h-28.1V166.3z M297.1,166.3"/>
	<path fill-rule="evenodd" clip-rule="evenodd" fill="#F15D2A" d="M339.3,125.6c2.6,0,4.7,2.1,4.7,4.7v50.1l-9.4,9.4v-59.4
		C334.6,127.7,336.7,125.6,339.3,125.6L339.3,125.6z M339.3,125.6"/>
	<path fill-rule="evenodd" clip-rule="evenodd" fill="#1E1E1E" d="M226.1,180.4l-18.7,11.3l18.8,11.3h9.4v-22.7H226.1z M226.1,180.4
		"/>
	<path fill-rule="evenodd" clip-rule="evenodd" fill="#444444" d="M188.6,180.4h37.5V203h-37.5V180.4z M188.6,180.4"/>
	<path fill-rule="evenodd" clip-rule="evenodd" fill="#1E1E1E" d="M334.6,180.3l-18.7,11.3l18.8,11.3h9.4v-22.7H334.6z M334.6,180.3
		"/>
	<path fill-rule="evenodd" clip-rule="evenodd" fill="#444444" d="M297.1,180.3h37.5V203h-37.5V180.3z M297.1,180.3"/>
	<path fill-rule="evenodd" clip-rule="evenodd" fill="#FCD7D2" d="M319.6,80.1h-8.4v25.3c7.8,0,14.1-6.3,14.1-14.1
		C325.2,86.7,323,82.6,319.6,80.1z M319.6,80.1"/>
	<path fill-rule="evenodd" clip-rule="evenodd" fill="#FFF2D4" d="M315.3,84.6c0.4,2,0.6,4.3,0.6,6.7c0,7.8-2.1,14.1-4.7,14.1
		c-7.8,0-14.1-6.3-14.1-14.1L315.3,84.6z M315.3,84.6"/>
	<path fill-rule="evenodd" clip-rule="evenodd" fill="#A15634" d="M319.6,80.1c-1.3,1.7-2.7,3.2-4.3,4.6l-4.1-7.4
		C314.3,77.3,317.2,78.3,319.6,80.1L319.6,80.1z M319.6,80.1"/>
	<path fill-rule="evenodd" clip-rule="evenodd" fill="#C2723B" d="M297.1,91.3c0-7.8,6.3-14.1,14.1-14.1c1.8,0,3.3,3,4.1,7.4
		C310.4,88.8,304,91.3,297.1,91.3L297.1,91.3z M297.1,91.3"/>
	<path fill-rule="evenodd" clip-rule="evenodd" fill="#F5813E" d="M211.3,81.6L200,93.5c-1.2,1.3-1.9,3-1.9,4.8c0,3.9,3.1,7,7,7
		h16.4V81.6H211.3z M211.3,81.6"/>
	<path fill-rule="evenodd" clip-rule="evenodd" fill="#F15D2A" d="M242.9,93.5l-11.3-11.9h-10.2v23.8h16.4c3.9,0,7-3.1,7-7
		C244.9,96.5,244.1,94.8,242.9,93.5L242.9,93.5z M242.9,93.5"/>
	<path fill-rule="evenodd" clip-rule="evenodd" fill="#F8B1A7" d="M232.2,82.2c0,0-10.7,0-10.7,0v23.2c7.8,0,14.1-6.3,14.1-14.1
		C235.5,87.8,234.2,84.7,232.2,82.2L232.2,82.2z M232.2,82.2"/>
	<path fill-rule="evenodd" clip-rule="evenodd" fill="#FCD7D2" d="M225.8,86l-15-3.8c-2.1,2.5-3.4,5.6-3.4,9.1
		c0,7.8,6.3,14.1,14.1,14.1c2.6,0,4.7-6.3,4.7-14.1C226.1,89.4,226,87.7,225.8,86L225.8,86z M225.8,86"/>
	<path fill-rule="evenodd" clip-rule="evenodd" fill="#F15D2A" d="M221.4,77.3l4.3,8.8c2.3-0.7,4.5-2,6.4-3.8
		C229.6,79.2,225.7,77.3,221.4,77.3L221.4,77.3z M221.4,77.3"/>
	<path fill-rule="evenodd" clip-rule="evenodd" fill="#F5813E" d="M221.4,77.3c-4.3,0-8.1,1.9-10.7,5c4.1,4.1,9.9,5.3,15,3.8
		C225.1,80.9,223.4,77.3,221.4,77.3L221.4,77.3z M221.4,77.3"/>
</g>
<g>
	<path fill-rule="evenodd" clip-rule="evenodd" fill="#FFF2D4" d="M346.2,96.5c-1.4,0-2.5-1.1-2.5-2.5h-5.1c0,4.2,3.4,7.6,7.6,7.6
		h45.5v-5.1L346.2,96.5z M346.2,96.5"/>
	<path fill-rule="evenodd" clip-rule="evenodd" fill="#FFE1A5" d="M439.9,87.2c0,5.1-4.2,9.3-9.3,9.3h-38.8v5.1h38.8
		c7.9,0,14.3-6.4,14.3-14.3H439.9z M439.9,87.2"/>
	<path fill-rule="evenodd" clip-rule="evenodd" fill="#FFF2D4" d="M379.1,132.7v66.3l-8.4,2.8c-1.3,0.4-2,1.9-1.6,3.2
		c0.4,1.3,1.9,2,3.2,1.6l10.1-3.4c1-0.3,1.7-1.3,1.7-2.4v-68.2L379.1,132.7z M379.1,132.7"/>
	<path fill-rule="evenodd" clip-rule="evenodd" fill="#FFE1A5" d="M404.4,132.7v66.3l8.4,2.8c1.3,0.4,2,1.9,1.6,3.2
		c-0.4,1.3-1.9,2-3.2,1.6l-10.1-3.4c-1-0.3-1.7-1.3-1.7-2.4v-68.2L404.4,132.7z M404.4,132.7"/>
	<path fill-rule="evenodd" clip-rule="evenodd" fill="#B3B2B3" d="M348.8,65.2V99c0,1.4,1.1,2.5,2.5,2.5c1.4,0,2.5-1.1,2.5-2.5V65.2
		H348.8z M348.8,65.2"/>
	<path fill-rule="evenodd" clip-rule="evenodd" fill="#FFC95B" d="M391.8,122.6l5.1,37.8H407v-27.7L391.8,122.6z M391.8,122.6"/>
	<path fill-rule="evenodd" clip-rule="evenodd" fill="#FFE1A5" d="M391.8,122.6l-15.2,10.1v27.7h20.2v-27.7L391.8,122.6z
		 M391.8,122.6"/>
	<path fill-rule="evenodd" clip-rule="evenodd" fill="#FFE1A5" d="M405.3,92.2h-10.1l-3.4,25.3l5.1,15.2H407v-15.2
		c2.7-2,4.6-5.1,5.1-8.6V99C412,95.3,409,92.2,405.3,92.2L405.3,92.2z M405.3,92.2"/>
	<path fill-rule="evenodd" clip-rule="evenodd" fill="#FFF2D4" d="M401.9,108.9V99c0-3.7-3-6.7-6.7-6.7h-16.9c-3.7,0-6.7,3-6.7,6.7
		v9.9c0.5,3.5,2.4,6.6,5.1,8.6v15.2h20.2v-15.2C399.6,115.5,401.4,112.4,401.9,108.9z M401.9,108.9"/>
	<g>
		<path fill-rule="evenodd" clip-rule="evenodd" fill="#F9A34E" d="M399.4,102.4c0,1.4-1.1,2.5-2.5,2.5c-1.4,0-2.5-1.1-2.5-2.5
			c0-1.4,1.1-2.5,2.5-2.5C398.2,99.8,399.4,101,399.4,102.4z M399.4,102.4"/>
		<path fill-rule="evenodd" clip-rule="evenodd" fill="#F9A34E" d="M399.4,112.5c0,1.4-1.1,2.5-2.5,2.5c-1.4,0-2.5-1.1-2.5-2.5
			s1.1-2.5,2.5-2.5C398.2,110,399.4,111.1,399.4,112.5z M399.4,112.5"/>
		<path fill-rule="evenodd" clip-rule="evenodd" fill="#F9A34E" d="M399.4,122.6c0,1.4-1.1,2.5-2.5,2.5c-1.4,0-2.5-1.1-2.5-2.5
			s1.1-2.5,2.5-2.5C398.2,120.1,399.4,121.2,399.4,122.6z M399.4,122.6"/>
	</g>
	<path fill-rule="evenodd" clip-rule="evenodd" fill="#F5813E" d="M444.9,77.1h5.1c2.8,0,5.1-2.3,5.1-5.1v-5.1l-16.9-6.7L444.9,77.1
		z M444.9,77.1"/>
	<path fill-rule="evenodd" clip-rule="evenodd" fill="#F9A34E" d="M429.7,66.9V72c0,2.8,2.3,5.1,5.1,5.1h10.1V60.2L429.7,66.9z
		 M429.7,66.9"/>
	<path fill-rule="evenodd" clip-rule="evenodd" fill="#F15D2A" d="M442.4,51.7l-6.7,7.6l9.3,7.6h10.1v-2.5
		C455.1,57.4,449.4,51.7,442.4,51.7z M442.4,51.7"/>
	<path fill-rule="evenodd" clip-rule="evenodd" fill="#F5813E" d="M442.4,51.7c-7,0-12.7,5.7-12.7,12.7v2.5h15.2v-2.5
		C444.9,57.4,443.8,51.7,442.4,51.7z M442.4,51.7"/>
	<path fill-rule="evenodd" clip-rule="evenodd" fill="#81382C" d="M455.9,69.5h-27c-1.4,0-2.5-1.1-2.5-2.5c0-1.4,1.1-2.5,2.5-2.5h27
		c1.4,0,2.5,1.1,2.5,2.5C458.4,68.3,457.3,69.5,455.9,69.5z M455.9,69.5"/>
	<path fill-rule="evenodd" clip-rule="evenodd" fill="#52C4F1" d="M462.6,89.7h-40.5c-1.4,0-2.5-1.1-2.5-2.5c0-1.4,1.1-2.5,2.5-2.5
		h40.5c1.4,0,2.5,1.1,2.5,2.5C465.2,88.6,464,89.7,462.6,89.7z M462.6,89.7"/>
	<path fill-rule="evenodd" clip-rule="evenodd" fill="#F5887B" d="M391.8,51.7v30.4c8.4,0,15.2-6.8,15.2-15.2
		C407,58.5,400.2,51.7,391.8,51.7z M391.8,51.7"/>
	<path fill-rule="evenodd" clip-rule="evenodd" fill="#F8B1A7" d="M396.9,66.9c0-8.4-2.3-15.2-5.1-15.2c-8.4,0-15.2,6.8-15.2,15.2
		c0,8.4,6.8,15.2,15.2,15.2C394.6,82.1,396.9,75.3,396.9,66.9z M396.9,66.9"/>
	<path fill-rule="evenodd" clip-rule="evenodd" fill="#FFE1A5" d="M403.3,36.6h-12.8l-5.3,10.3l10.3,10.3h7.7V46.7
		c2.8,0,5.1-2.3,5.1-5.1C408.4,38.8,406.1,36.6,403.3,36.6L403.3,36.6z M403.3,36.6"/>
	<path fill-rule="evenodd" clip-rule="evenodd" fill="#FFF2D4" d="M390.6,36.6h-10.3c-2.8,0-5.1,2.3-5.1,5.1c0,2.8,2.3,5.1,5.1,5.1
		v10.4h15.4V41.6C395.6,38.8,393.4,36.6,390.6,36.6L390.6,36.6z M390.6,36.6"/>
	<path fill-rule="evenodd" clip-rule="evenodd" fill="#FFF2D4" d="M341.2,96.5c-1.4,0-2.5-1.1-2.5-2.5c0-4.2,3.4-7.6,7.6-7.6h5.1
		c1.4,0,2.5,1.1,2.5,2.5c0,1.4-1.1,2.5-2.5,2.5l-5.1,0c-1.4,0-2.5,1.1-2.5,2.5C343.7,95.3,342.6,96.5,341.2,96.5L341.2,96.5z
		 M341.2,96.5"/>
	<path fill-rule="evenodd" clip-rule="evenodd" fill="#CBCACA" d="M358.9,51.7v12.7c0,4.2-3.4,7.6-7.6,7.6c-4.2,0-7.6-3.4-7.6-7.6
		V51.7H358.9z M358.9,51.7"/>
</g>
<g>
	<path fill-rule="evenodd" clip-rule="evenodd" fill="#F5813E" d="M150.3,181.2v19.3c0,1.2,1,2.2,2.2,2.2c1.2,0,2.2-1,2.2-2.2v-13.4
		L150.3,181.2z M150.3,181.2"/>
	<path fill-rule="evenodd" clip-rule="evenodd" fill="#F9A34E" d="M101.4,187.1v13.4c0,1.2,1,2.2,2.2,2.2c1.2,0,2.2-1,2.2-2.2v-19.3
		L101.4,187.1z M101.4,187.1"/>
	<path fill-rule="evenodd" clip-rule="evenodd" fill="#F5813E" d="M145.9,122.7l-17.8,32.2l17.8,32.2h8.9v-64.4H145.9z M145.9,122.7
		"/>
	<path fill-rule="evenodd" clip-rule="evenodd" fill="#F9A34E" d="M101.4,122.7h44.5v64.4h-44.5V122.7z M101.4,122.7"/>
	<path fill-rule="evenodd" clip-rule="evenodd" fill="#011D29" d="M137,131.6l-17.8,23.3l17.8,23.3h8.9v-46.6H137z M137,131.6"/>
	<path fill-rule="evenodd" clip-rule="evenodd" fill="#004665" d="M110.3,131.6H137v46.6h-26.7V131.6z M110.3,131.6"/>
	<g>
		<path fill-rule="evenodd" clip-rule="evenodd" fill="#FFFFFF" d="M130.3,154.9c0,1.2-1,2.2-2.2,2.2c-1.2,0-2.2-1-2.2-2.2
			c0-1.2,1-2.2,2.2-2.2C129.3,152.7,130.3,153.7,130.3,154.9z M130.3,154.9"/>
		<path fill-rule="evenodd" clip-rule="evenodd" fill="#FFFFFF" d="M139.2,154.9c0,1.2-1,2.2-2.2,2.2c-1.2,0-2.2-1-2.2-2.2
			c0-1.2,1-2.2,2.2-2.2C138.2,152.7,139.2,153.7,139.2,154.9z M139.2,154.9"/>
		<path fill-rule="evenodd" clip-rule="evenodd" fill="#FFFFFF" d="M121.4,154.9c0,1.2-1,2.2-2.2,2.2c-1.2,0-2.2-1-2.2-2.2
			c0-1.2,1-2.2,2.2-2.2C120.4,152.7,121.4,153.7,121.4,154.9z M121.4,154.9"/>
	</g>
</g>
</svg>
