<?xml version="1.0" encoding="utf-8"?>
<!-- Generator: Adobe Illustrator 24.2.3, SVG Export Plug-In . SVG Version: 6.00 Build 0)  -->
<svg version="1.1" id="Capa_3" xmlns="http://www.w3.org/2000/svg" xmlns:xlink="http://www.w3.org/1999/xlink" x="0px" y="0px"
	 viewBox="0 0 480 216" enable-background="new 0 0 480 216" xml:space="preserve">
<g>
	<path fill-rule="evenodd" clip-rule="evenodd" fill="#444444" d="M419.8,135.6h-18.2c-1.3,0-2.3,1-2.3,2.3c0,0,0,0,0,0
		c0,0,0,33.3,0,33.3l-7.6,2.5c-1.2,0.4-1.8,1.7-1.4,2.9c0.4,1.2,1.7,1.8,2.9,1.4l9.1-3c0.9-0.3,1.6-1.2,1.6-2.2v-32.6l-0.1,0h16
		V135.6z M419.8,135.6"/>
	<path fill-rule="evenodd" clip-rule="evenodd" fill="#F9A34E" d="M319.7,83.2c-1.3,0-2.3,1-2.3,2.3v10.6h4.6V85.5
		C322,84.3,321,83.2,319.7,83.2z M319.7,83.2"/>
	<path fill-rule="evenodd" clip-rule="evenodd" fill="#CC2026" d="M365.3,83.2c-1.3,0-2.3,1-2.3,2.3v10.6h4.6V85.5
		C367.5,84.3,366.5,83.2,365.3,83.2z M365.3,83.2"/>
	<path fill-rule="evenodd" clip-rule="evenodd" fill="#EF3824" d="M383.8,126.5l-32.2-9.1l23.1,87.2h9.1V126.5z M383.8,126.5"/>
	<path fill-rule="evenodd" clip-rule="evenodd" fill="#F15D2A" d="M306,126.5l9.1-9.1h59.5v87.2H306v-9.1l3-4.6l-3-4.6V126.5z
		 M306,126.5"/>
	<path fill-rule="evenodd" clip-rule="evenodd" fill="#EF3824" d="M360.7,90.1h9.1v27.3h-9.1V90.1z M360.7,90.1"/>
	<path fill-rule="evenodd" clip-rule="evenodd" fill="#FFC95B" d="M315.1,90.1h9.1v27.3h-9.1V90.1z M315.1,90.1"/>
	<path fill-rule="evenodd" clip-rule="evenodd" fill="#7D7C7D" d="M342.5,90.1l-9.1,27.3h18.2V90.1H342.5z M342.5,90.1"/>
	<path fill-rule="evenodd" clip-rule="evenodd" fill="#969697" d="M333.4,90.1h9.1v27.3h-9.1V90.1z M333.4,90.1"/>
	<path fill-rule="evenodd" clip-rule="evenodd" fill="#CBCACA" d="M429.6,144.7h9.1V200h-9.1V144.7z M429.6,144.7"/>
	<path fill-rule="evenodd" clip-rule="evenodd" fill="#969697" d="M445.7,202.4l-7-7l-9.1,0l-7,7c-1.2,1.2-3.5,2.1-5.2,2.1h33.4
		C449.2,204.6,446.9,203.6,445.7,202.4z M445.7,202.4"/>
	<path fill-rule="evenodd" clip-rule="evenodd" fill="#7D7C7D" d="M457,206.9h-45.6c-1.3,0-2.3-1-2.3-2.3c0-1.3,1-2.3,2.3-2.3H457
		c1.3,0,2.3,1,2.3,2.3C459.3,205.8,458.2,206.9,457,206.9z M457,206.9"/>
	<path fill-rule="evenodd" clip-rule="evenodd" fill="#CBCACA" d="M406.6,112.9l-9.1,6.8l9.1,6.8h18.2v-13.7H406.6z M406.6,112.9"/>
	<path fill-rule="evenodd" clip-rule="evenodd" fill="#EAECEB" d="M306,112.9h100.5v13.7H306V112.9z M306,112.9"/>
	<path fill-rule="evenodd" clip-rule="evenodd" fill="#1E1E1E" d="M433.9,117.4l-4.6,22.8c7.5,0,13.7-6.1,13.7-13.7L433.9,117.4z
		 M433.9,117.4"/>
	<path fill-rule="evenodd" clip-rule="evenodd" fill="#444444" d="M433.9,126.5v-9.1l-18.2,9.1v13.7l6.8,4.6l6.8-4.6
		C431.9,140.2,433.9,134.1,433.9,126.5L433.9,126.5z M433.9,126.5"/>
	<path fill-rule="evenodd" clip-rule="evenodd" fill="#0BAAE2" d="M436.9,90.1h-9.1l6.1,36.4h9.1V96.2
		C443,92.8,440.3,90.1,436.9,90.1z M436.9,90.1"/>
	<path fill-rule="evenodd" clip-rule="evenodd" fill="#52C4F1" d="M427.8,90.1h-6.1c-3.4,0-6.1,2.7-6.1,6.1v30.4h18.2V96.2
		C433.9,92.8,431.2,90.1,427.8,90.1L427.8,90.1z M427.8,90.1"/>
	<path fill-rule="evenodd" clip-rule="evenodd" fill="#EF3824" d="M443,140.2l-6.1,4.6l6.1,4.6h9.1v-9.1H443z M443,140.2"/>
	<path fill-rule="evenodd" clip-rule="evenodd" fill="#F15D2A" d="M415.7,140.2H443v9.1h-27.3V140.2z M415.7,140.2"/>
	<path fill-rule="evenodd" clip-rule="evenodd" fill="#B3B2B3" d="M383.8,186.4h-9.1v9.1l9.1,0c2.5,0,4.6-2,4.6-4.6
		C388.3,188.4,386.3,186.4,383.8,186.4L383.8,186.4z M383.8,186.4"/>
	<path fill-rule="evenodd" clip-rule="evenodd" fill="#CBCACA" d="M374.7,186.4H306v9.1l68.6,0c2.5,0,4.6-2,4.6-4.6
		C379.2,188.4,377.2,186.4,374.7,186.4L374.7,186.4z M374.7,186.4"/>
	<path fill-rule="evenodd" clip-rule="evenodd" fill="#52C4F1" d="M415.7,93.9c-13.8,0-25.1-11.2-25.1-25.1c0-1.3-1-2.3-2.3-2.3
		c-1.3,0-2.3,1-2.3,2.3c0,16.3,13.3,29.6,29.6,29.6h13.7v-4.6H415.7z M415.7,93.9"/>
	<path fill-rule="evenodd" clip-rule="evenodd" fill="#F8B1A7" d="M439.7,58.4c0,0-10.4,0-10.4,0V81c7.5,0,13.7-6.1,13.7-13.7
		C443,63.9,441.8,60.8,439.7,58.4z M439.7,58.4"/>
	<path fill-rule="evenodd" clip-rule="evenodd" fill="#FCD7D2" d="M433.6,62.1l-14.6-3.7c-2,2.4-3.3,5.5-3.3,8.9
		c0,7.5,6.1,13.7,13.7,13.7c2.5,0,4.6-6.1,4.6-13.7C433.9,65.5,433.8,63.7,433.6,62.1L433.6,62.1z M433.6,62.1"/>
	<path fill-rule="evenodd" clip-rule="evenodd" fill="#81382C" d="M429.3,53.6l4.2,8.5c2.3-0.7,4.4-1.9,6.2-3.7
		C437.2,55.5,433.5,53.6,429.3,53.6L429.3,53.6z M429.3,53.6"/>
	<path fill-rule="evenodd" clip-rule="evenodd" fill="#A15634" d="M429.3,53.6c-4.2,0-7.9,1.9-10.4,4.8c4,4,9.6,5.2,14.6,3.7
		C432.9,57.2,431.2,53.6,429.3,53.6L429.3,53.6z M429.3,53.6"/>
</g>
<g>
	<path fill-rule="evenodd" clip-rule="evenodd" fill="#444444" d="M210.8,101.2h4.4V86.5l-4.4,5.9V101.2z M210.8,101.2"/>
	<path fill-rule="evenodd" clip-rule="evenodd" fill="#CBCACA" d="M213.1,55.5h-2.2v36.9h11.1v-28C221.9,59.5,217.9,55.5,213.1,55.5
		z M213.1,55.5"/>
	<path fill-rule="evenodd" clip-rule="evenodd" fill="#FFF2D4" d="M208.6,107.9c-1.2,0-2.2-1-2.2-2.2c0-1.2,1-2.2,2.2-2.2h4.4
		c1.2,0,2.2-1,2.2-2.2c0-1.2-1-2.2-2.2-2.2l-4.4,0c-3.7,0-6.6,3-6.6,6.6c0,3.7,3,6.6,6.6,6.6h39.8v-4.4H208.6z M208.6,107.9"/>
	<path fill-rule="evenodd" clip-rule="evenodd" fill="#FFF2D4" d="M237.3,139.6v58l-7.3,2.4c-1.2,0.4-1.8,1.6-1.4,2.8
		c0.4,1.2,1.6,1.8,2.8,1.4l8.9-3c0.9-0.3,1.5-1.1,1.5-2.1v-59.6L237.3,139.6z M237.3,139.6"/>
	<path fill-rule="evenodd" clip-rule="evenodd" fill="#FFE1A5" d="M259.4,139.6v58l7.3,2.4c1.2,0.4,1.8,1.6,1.4,2.8
		c-0.4,1.2-1.6,1.8-2.8,1.4l-8.9-3c-0.9-0.3-1.5-1.1-1.5-2.1v-59.6L259.4,139.6z M259.4,139.6"/>
	<path fill-rule="evenodd" clip-rule="evenodd" fill="#FFF2D4" d="M259,64.3c0.4-1.7,0-3.6-1.3-4.9c-1.3-1.3-3.2-1.8-4.9-1.3
		c-0.9-1.5-2.6-2.5-4.4-2.5c-1.9,0-3.5,1-4.4,2.5c-1.7-0.4-3.6,0-4.9,1.3c-1.3,1.3-1.8,3.2-1.3,4.9c-1.5,0.9-2.5,2.6-2.5,4.4V82
		h26.6c0,0,0-10.4,0-13.3C261.6,66.9,260.6,65.2,259,64.3L259,64.3z M259,64.3"/>
	<path fill-rule="evenodd" clip-rule="evenodd" fill="#F5887B" d="M248.3,68.8v26.6c7.3,0,13.3-5.9,13.3-13.3
		C261.6,74.7,255.7,68.8,248.3,68.8L248.3,68.8z M248.3,68.8"/>
	<path fill-rule="evenodd" clip-rule="evenodd" fill="#F8B1A7" d="M252.7,82c0-7.3-2-13.3-4.4-13.3C241,68.8,235,74.7,235,82
		c0,7.3,5.9,13.3,13.3,13.3C250.8,95.3,252.7,89.4,252.7,82z M252.7,82"/>
	<path fill-rule="evenodd" clip-rule="evenodd" fill="#1E1E1E" d="M243.9,126.3l9,37.5h8.9v-37.5H243.9z M243.9,126.3"/>
	<path fill-rule="evenodd" clip-rule="evenodd" fill="#444444" d="M235.2,126.3h17.7v37.5h-17.7V126.3z M235.2,126.3"/>
	<path fill-rule="evenodd" clip-rule="evenodd" fill="#FFE1A5" d="M260.3,104.2h-8.9l1.5,35.4h8.9c2.4,0,4.4-2,4.4-4.4v-25.1
		C266.2,106.8,263.5,104.2,260.3,104.2L260.3,104.2z M260.3,104.2"/>
	<path fill-rule="evenodd" clip-rule="evenodd" fill="#FFF2D4" d="M257.3,135.2v-25.1c0-3.3-2.6-5.9-5.9-5.9l-14.8,0
		c-3.3,0-5.9,2.6-5.9,5.9v25.1c0,2.4,2,4.4,4.4,4.4h17.7C255.3,139.6,257.3,137.6,257.3,135.2z M257.3,135.2"/>
	<g>
		<path fill-rule="evenodd" clip-rule="evenodd" fill="#444444" d="M259.5,113c0,1.2-1,2.2-2.2,2.2c-1.2,0-2.2-1-2.2-2.2
			c0-1.2,1-2.2,2.2-2.2C258.5,110.8,259.5,111.8,259.5,113z M259.5,113"/>
		<path fill-rule="evenodd" clip-rule="evenodd" fill="#444444" d="M259.5,121.9c0,1.2-1,2.2-2.2,2.2c-1.2,0-2.2-1-2.2-2.2
			c0-1.2,1-2.2,2.2-2.2C258.5,119.7,259.5,120.7,259.5,121.9z M259.5,121.9"/>
		<path fill-rule="evenodd" clip-rule="evenodd" fill="#444444" d="M259.5,130.7c0,1.2-1,2.2-2.2,2.2c-1.2,0-2.2-1-2.2-2.2
			c0-1.2,1-2.2,2.2-2.2C258.5,128.5,259.5,129.5,259.5,130.7z M259.5,130.7"/>
	</g>
	<path fill-rule="evenodd" clip-rule="evenodd" fill="#EF3824" d="M288.3,96.8v35.4c3.9,0,7.1-2.5,8.3-5.9l4.2-11.8
		c0.5-1.4,0.8-2.9,0.8-4.4C301.6,102.7,295.6,96.8,288.3,96.8L288.3,96.8z M288.3,96.8"/>
	<path fill-rule="evenodd" clip-rule="evenodd" fill="#F15F4C" d="M291.1,126.3l1.4-11.8c0.2-1.4,0.3-2.9,0.3-4.4
		c0-7.3-2-13.3-4.4-13.3c-7.3,0-13.3,5.9-13.3,13.3c0,1.6,0.3,3,0.8,4.4l4.2,11.8c1.2,3.4,4.5,5.9,8.3,5.9
		C289.6,132.2,290.7,129.7,291.1,126.3L291.1,126.3z M291.1,126.3"/>
	<path fill-rule="evenodd" clip-rule="evenodd" fill="#FFF2D4" d="M292.7,110.1c0,2.4-2,4.4-4.4,4.4c-2.4,0-4.4-2-4.4-4.4
		c0-2.4,2-4.4,4.4-4.4C290.7,105.7,292.7,107.6,292.7,110.1z M292.7,110.1"/>
</g>
</svg>
