<?xml version="1.0" encoding="utf-8"?>
<!-- Generator: Adobe Illustrator 24.2.3, SVG Export Plug-In . SVG Version: 6.00 Build 0)  -->
<svg version="1.1" id="Capa_1" xmlns="http://www.w3.org/2000/svg" xmlns:xlink="http://www.w3.org/1999/xlink" x="0px" y="0px"
	 viewBox="0 0 144 30.7" enable-background="new 0 0 144 30.7" xml:space="preserve">
<path fill-rule="evenodd" clip-rule="evenodd" fill="#F05123" d="M49.7,11.7c0-5.6-4.5-10.1-10-10.1s-10,4.5-10,10.1v10.1
	c0,1.2,1,2.2,2.2,2.2s2.2-1,2.2-2.2v-4.5h11.1v4.5c0,1.2,1,2.2,2.2,2.2s2.2-1,2.2-2.2L49.7,11.7L49.7,11.7z M34.2,11.7
	c0-3.1,2.5-5.6,5.5-5.6s5.5,2.5,5.5,5.6v1.1h-11V11.7L34.2,11.7z M52.2,8.4c0,1,0.6,1.9,1.5,2.3c-0.8,1.3-1.2,2.8-1.2,4.4v13.4
	c0,1.2,1,2.2,2.2,2.2s2.2-1,2.2-2.2v-5.7c1.3,0.8,2.8,1.2,4.4,1.2c4.9,0,8.9-4,8.9-8.9s-4-8.9-8.9-8.9c-1.6,0-3.1,0.5-4.4,1.2
	c-0.4-0.9-1.2-1.5-2.2-1.5C53.3,5.9,52.2,7,52.2,8.4L52.2,8.4L52.2,8.4z M56.9,15.1c0-2.5,2-4.5,4.4-4.5c2.5,0,4.4,2,4.4,4.5
	s-2,4.5-4.4,4.5C58.8,19.5,56.9,17.5,56.9,15.1L56.9,15.1L56.9,15.1z M71.8,8.4c0,1,0.6,1.9,1.5,2.3c-0.8,1.3-1.2,2.8-1.2,4.4v13.4
	c0,1.2,1,2.2,2.2,2.2s2.2-1,2.2-2.2v-5.7c1.3,0.8,2.8,1.2,4.4,1.2c4.9,0,8.9-4,8.9-8.9s-4-8.9-8.9-8.9c-1.6,0-3.1,0.5-4.4,1.2
	c-0.4-0.9-1.2-1.5-2.2-1.5C72.9,5.9,71.8,7,71.8,8.4L71.8,8.4L71.8,8.4z M76.5,15.1c0-2.5,2-4.5,4.4-4.5c2.5,0,4.4,2,4.4,4.5
	s-2,4.5-4.4,4.5C78.5,19.5,76.5,17.5,76.5,15.1L76.5,15.1L76.5,15.1z M102,24c1.2,0,2.2-1,2.2-2.2s-1-2.2-2.2-2.2h-2.2
	c-1.7,0-3.1-0.9-3.8-2.2h10.5c1.2,0,2.2-1,2.2-2.2c0-4.9-4-8.9-8.9-8.9s-8.9,4-8.9,8.9s4,8.9,8.9,8.9L102,24L102,24z M99.7,10.6
	c1.6,0,3.1,0.9,3.8,2.2h-7.7C96.7,11.5,98.1,10.6,99.7,10.6L99.7,10.6z M110.8,6.1h1.7V3.9c0-1.2,1-2.2,2.2-2.2s2.2,1,2.2,2.2v2.2
	h3.3c1.2,0,2.2,1,2.2,2.2s-1,2.2-2.2,2.2h-3.3v6.7c0,1.2,1,2.2,2.2,2.2h1.1c1.2,0,2.2,1,2.2,2.2s-1,2.2-2.2,2.2h-1.1
	c-3.7,0-6.6-3-6.6-6.7v-6.7h-1.7c-1.2,0-2.2-1-2.2-2.2C108.6,7.1,109.6,6.1,110.8,6.1L110.8,6.1z M128.5,8.4c0-1.2-1-2.2-2.2-2.2
	s-2.2,1-2.2,2.2v13.4c0,1.2,1,2.2,2.2,2.2s2.2-1,2.2-2.2V8.4L128.5,8.4z M123.8,2.5c0,1.4,1.1,2.5,2.5,2.5s2.5-1.1,2.5-2.5
	S127.7,0,126.3,0S123.8,1.1,123.8,2.5L123.8,2.5z M132.4,6.1c-1.2,0-2.2,1-2.2,2.2s1,2.2,2.2,2.2h1.7v6.7c0,3.7,3,6.7,6.6,6.7h1.1
	c1.2,0,2.2-1,2.2-2.2s-1-2.2-2.2-2.2h-1.1c-1.2,0-2.2-1-2.2-2.2v-6.7h3.3c1.2,0,2.2-1,2.2-2.2s-1-2.2-2.2-2.2h-3.3V3.9
	c0-1.2-1-2.2-2.2-2.2s-2.2,1-2.2,2.2v2.2C134.1,6.1,132.4,6.1,132.4,6.1z"/>
<g>
	<g>
		<path fill-rule="evenodd" clip-rule="evenodd" fill="#EF5023" d="M22.1,11c0,10.2-11,19.7-11,19.7s-1.2-1-2.8-2.8
			c-0.5-0.6-1.1-1.2-1.7-1.9C3.5,22.3,0,16.8,0,11C0,5.3,4.3,0.6,9.8,0l0.1,5.2c0,1-0.3,2-1,2.8l-2.1,2.4C6.2,11.1,5.9,12,6,12.9V13
			l1,7.8c0,0.3,0.3,0.5,0.5,0.5s0.3-0.1,0.4-0.2C8,21,8.1,20.8,8.1,20.6v-6.8v-0.1c0-0.3,0.2-0.5,0.5-0.5s0.5,0.2,0.5,0.5v8.9
			c0,0.2,0.1,0.4,0.2,0.5c0.1,0.1,0.3,0.2,0.5,0.2c0.4,0,0.7-0.3,0.7-0.7v-8.8c0-0.3,0.2-0.5,0.5-0.5s0.5,0.2,0.5,0.5v8.9
			c0,0.4,0.3,0.7,0.7,0.7c0.2,0,0.4-0.1,0.5-0.2s0.2-0.3,0.2-0.5v-8.9c0-0.3,0.2-0.5,0.5-0.5s0.5,0.2,0.5,0.4v0.1v6.9
			c0,0.3,0.3,0.6,0.6,0.6c0.1,0,0.2,0,0.3-0.1l0.3-0.3l0,0c0-0.1,0.1-0.1,0.1-0.2l0.9-7.6c0-0.2,0-0.4,0-0.5c0-0.8-0.3-1.5-0.8-2.1
			l-2.1-2.4c-0.7-0.8-1-1.8-1-2.8l0.1-5.2C17.9,0.8,22.1,5.4,22.1,11z"/>
	</g>
</g>
</svg>
